<?xml version="1.0" encoding="UTF-8" standalone="no"?>
<!-- Created with Inkscape (http://www.inkscape.org/) -->

<svg
   xmlns:dc="http://purl.org/dc/elements/1.1/"
   xmlns:cc="http://creativecommons.org/ns#"
   xmlns:rdf="http://www.w3.org/1999/02/22-rdf-syntax-ns#"
   xmlns:svg="http://www.w3.org/2000/svg"
   xmlns="http://www.w3.org/2000/svg"
   xmlns:sodipodi="http://sodipodi.sourceforge.net/DTD/sodipodi-0.dtd"
   xmlns:inkscape="http://www.inkscape.org/namespaces/inkscape"
   width="67.521179mm"
   height="47.781841mm"
   viewBox="0 0 239.24827 169.30574"
   id="svg2"
   version="1.1"
   inkscape:version="0.91 r13725"
   sodipodi:docname="FRC Logo.svg">
  <defs
     id="defs4">
    <clipPath
       id="clipPath3380"
       clipPathUnits="userSpaceOnUse">
      <path
         inkscape:connector-curvature="0"
         id="path3382"
         d="m 0,1024 768,0 L 768,0 0,0 0,1024 Z" />
    </clipPath>
    <clipPath
       id="clipPath3404"
       clipPathUnits="userSpaceOnUse">
      <path
         inkscape:connector-curvature="0"
         id="path3406"
         d="m 0,1024 768,0 L 768,0 0,0 0,1024 Z" />
    </clipPath>
    <clipPath
       id="clipPath3536"
       clipPathUnits="userSpaceOnUse">
      <path
         inkscape:connector-curvature="0"
         id="path3538"
         d="m 290.556,147 189.131,0 0,129.776 -189.131,0 0,-129.776 z" />
    </clipPath>
  </defs>
  <sodipodi:namedview
     id="base"
     pagecolor="#ffffff"
     bordercolor="#666666"
     borderopacity="1.0"
     inkscape:pageopacity="0.0"
     inkscape:pageshadow="2"
     inkscape:zoom="0.35"
     inkscape:cx="-79.474504"
     inkscape:cy="461.36754"
     inkscape:document-units="px"
     inkscape:current-layer="layer1"
     showgrid="false"
     fit-margin-top="1"
     fit-margin-left="0.4"
     fit-margin-right="0.4"
     fit-margin-bottom="1"
     inkscape:window-width="1366"
     inkscape:window-height="705"
     inkscape:window-x="-8"
     inkscape:window-y="-8"
     inkscape:window-maximized="1" />
  <metadata
     id="metadata7">
    <rdf:RDF>
      <cc:Work
         rdf:about="">
        <dc:format>image/svg+xml</dc:format>
        <dc:type
           rdf:resource="http://purl.org/dc/dcmitype/StillImage" />
        <dc:title></dc:title>
      </cc:Work>
    </rdf:RDF>
  </metadata>
  <g
     inkscape:label="Layer 1"
     inkscape:groupmode="layer"
     id="layer1"
     transform="translate(-27.331647,-938.70972)">
    <g
       id="g3532"
       transform="matrix(1.25,0,0,-1.25,-334.44603,1288.2224)">
      <g
         clip-path="url(#clipPath3536)"
         id="g3534">
        <g
           transform="translate(320.2376,185.3657)"
           id="g3540">
          <path
             inkscape:connector-curvature="0"
             id="path3542"
             style="fill:#009cd7;fill-opacity:1;fill-rule:nonzero;stroke:none"
             d="m 0,0 4.49,0 c 1.61,0 2.475,0.864 2.475,2.418 0,1.525 -1.208,2.216 -2.707,2.216 L 0,4.634 0,0 Z m -5.354,8.922 10.476,0 c 3.627,0 7.196,-1.641 7.196,-5.784 0,-2.215 -1.067,-4.319 -3.223,-5.153 l 0,-0.059 c 2.186,-0.515 2.819,-2.963 2.994,-4.918 0.057,-0.865 0.142,-3.887 0.861,-4.633 l -5.294,0 c -0.461,0.691 -0.549,2.702 -0.606,3.279 -0.142,2.071 -0.487,4.201 -2.992,4.201 l -4.058,0 0,-7.48 -5.354,0 0,20.547 z" />
        </g>
        <g
           transform="translate(343.287,177.9116)"
           id="g3544">
          <path
             inkscape:connector-curvature="0"
             id="path3546"
             style="fill:#009cd7;fill-opacity:1;fill-rule:nonzero;stroke:none"
             d="m 0,0 c 3.451,0 4.774,3.05 4.774,6.103 0,3.051 -1.323,6.099 -4.774,6.099 -3.457,0 -4.778,-3.048 -4.778,-6.099 C -4.778,3.05 -3.457,0 0,0 m 0,16.809 c 6.474,0 10.129,-4.747 10.129,-10.706 C 10.129,0.144 6.474,-4.604 0,-4.604 c -6.476,0 -10.131,4.748 -10.131,10.707 0,5.959 3.655,10.706 10.131,10.706" />
        </g>
        <g
           transform="translate(359.945,178.0284)"
           id="g3548">
          <path
             inkscape:connector-curvature="0"
             id="path3550"
             style="fill:#009cd7;fill-opacity:1;fill-rule:nonzero;stroke:none"
             d="m 0,0 4.289,0 c 1.696,0 2.878,0.603 2.878,2.3 0,1.815 -1.268,2.421 -2.878,2.421 L 0,4.721 0,0 Z m 0,8.172 4.144,0 c 0.92,0 2.188,0.49 2.188,1.958 0,1.496 -1.065,1.984 -2.188,1.984 L 0,12.114 0,8.172 Z m -5.354,8.087 9.612,0 c 3.54,0.058 7.428,-0.863 7.428,-5.152 0,-1.84 -1.095,-3.336 -2.707,-4.145 2.186,-0.63 3.541,-2.531 3.541,-4.862 0,-4.893 -3.599,-6.388 -8.002,-6.388 l -9.872,0 0,20.547 z" />
        </g>
        <g
           transform="translate(382.9934,177.9116)"
           id="g3552">
          <path
             inkscape:connector-curvature="0"
             id="path3554"
             style="fill:#009cd7;fill-opacity:1;fill-rule:nonzero;stroke:none"
             d="m 0,0 c 3.453,0 4.776,3.05 4.776,6.103 0,3.051 -1.323,6.099 -4.776,6.099 -3.455,0 -4.777,-3.048 -4.777,-6.099 C -4.777,3.05 -3.455,0 0,0 m 0,16.809 c 6.475,0 10.131,-4.747 10.131,-10.706 C 10.131,0.144 6.475,-4.604 0,-4.604 c -6.476,0 -10.131,4.748 -10.131,10.707 0,5.959 3.655,10.706 10.131,10.706" />
        </g>
        <g
           transform="translate(410.5893,189.6813)"
           id="g3556">
          <path
             inkscape:connector-curvature="0"
             id="path3558"
             style="fill:#009cd7;fill-opacity:1;fill-rule:nonzero;stroke:none"
             d="m 0,0 -6.131,0 0,-15.941 -5.353,0 0,15.941 -6.129,0 0,4.606 L 0,4.606 0,0 Z" />
        </g>
        <path
           inkscape:connector-curvature="0"
           id="path3560"
           style="fill:#009cd7;fill-opacity:1;fill-rule:nonzero;stroke:none"
           d="m 411.781,194.102 5.352,0 0,-20.549 -5.352,0 0,20.549 z" />
        <g
           transform="translate(432.1937,186.9481)"
           id="g3562">
          <path
             inkscape:connector-curvature="0"
             id="path3564"
             style="fill:#009cd7;fill-opacity:1;fill-rule:nonzero;stroke:none"
             d="m 0,0 c -0.285,2.071 -1.899,3.166 -4.143,3.166 -3.453,0 -4.777,-3.048 -4.777,-6.1 0,-3.052 1.324,-6.102 4.777,-6.102 2.503,0 3.945,1.438 4.143,3.8 l 5.355,0 c -0.286,-5.297 -4.172,-8.405 -9.383,-8.405 -6.215,0 -10.245,4.749 -10.245,10.707 0,5.959 4.03,10.706 10.245,10.706 C 0.406,7.772 5.213,4.95 5.355,0 L 0,0 Z" />
        </g>
        <g
           transform="translate(442.8386,180.6448)"
           id="g3566">
          <path
             inkscape:connector-curvature="0"
             id="path3568"
             style="fill:#009cd7;fill-opacity:1;fill-rule:nonzero;stroke:none"
             d="m 0,0 c 0.116,-2.416 1.614,-3.194 3.887,-3.194 1.613,0 3.28,0.578 3.28,2.102 0,1.813 -2.934,2.159 -5.897,2.994 -2.938,0.833 -6.02,2.158 -6.02,5.929 0,4.489 4.52,6.245 8.376,6.245 4.088,0 8.202,-1.987 8.231,-6.62 l -5.351,0 c 0.085,1.872 -1.671,2.475 -3.309,2.475 -1.153,0 -2.59,-0.405 -2.59,-1.754 0,-1.585 2.964,-1.874 5.956,-2.71 2.963,-0.833 5.956,-2.214 5.956,-5.925 0,-5.211 -4.43,-6.879 -8.948,-6.879 -4.721,0 -8.895,2.072 -8.923,7.337 L 0,0 Z" />
        </g>
        <g
           transform="translate(304.8317,160.6422)"
           id="g3570">
          <path
             inkscape:connector-curvature="0"
             id="path3572"
             style="fill:#009cd7;fill-opacity:1;fill-rule:nonzero;stroke:none"
             d="m 0,0 c -0.29,2.071 -1.902,3.165 -4.147,3.165 -3.451,0 -4.777,-3.05 -4.777,-6.1 0,-3.053 1.326,-6.102 4.777,-6.102 2.505,0 3.943,1.439 4.147,3.798 l 5.353,0 c -0.29,-5.297 -4.172,-8.403 -9.382,-8.403 -6.218,0 -10.247,4.747 -10.247,10.707 0,5.955 4.029,10.704 10.247,10.704 4.432,0 9.238,-2.82 9.382,-7.769 L 0,0 Z" />
        </g>
        <g
           transform="translate(320.6561,151.6053)"
           id="g3574">
          <path
             inkscape:connector-curvature="0"
             id="path3576"
             style="fill:#009cd7;fill-opacity:1;fill-rule:nonzero;stroke:none"
             d="m 0,0 c 3.452,0 4.775,3.049 4.775,6.102 0,3.05 -1.323,6.1 -4.775,6.1 -3.456,0 -4.778,-3.05 -4.778,-6.1 C -4.778,3.049 -3.456,0 0,0 m 0,16.806 c 6.475,0 10.129,-4.749 10.129,-10.704 0,-5.96 -3.654,-10.707 -10.129,-10.707 -6.476,0 -10.131,4.747 -10.131,10.707 0,5.955 3.655,10.704 10.131,10.704" />
        </g>
        <g
           transform="translate(331.9875,167.9797)"
           id="g3578">
          <path
             inkscape:connector-curvature="0"
             id="path3580"
             style="fill:#009cd7;fill-opacity:1;fill-rule:nonzero;stroke:none"
             d="m 0,0 7.889,0 3.538,-13.697 0.059,0 3.54,13.697 7.885,0 0,-20.549 -5.036,0 0,15.6 -0.057,0 -4.318,-15.6 -4.087,0 -4.318,15.6 -0.056,0 0,-15.6 -5.039,0 L 0,0 Z" />
        </g>
        <g
           transform="translate(361.1057,158.4241)"
           id="g3582">
          <path
             inkscape:connector-curvature="0"
             id="path3584"
             style="fill:#009cd7;fill-opacity:1;fill-rule:nonzero;stroke:none"
             d="m 0,0 3.598,0 c 1.667,0 2.877,0.691 2.877,2.564 0,1.925 -1.237,2.704 -2.877,2.704 L 0,5.268 0,0 Z m -5.352,9.556 9.755,0 c 3.826,0 7.424,-1.757 7.424,-6.621 0,-5.094 -2.906,-7.077 -7.424,-7.077 l -4.403,0 0,-6.851 -5.352,0 0,20.549 z" />
        </g>
        <g
           transform="translate(374.1121,167.9797)"
           id="g3586">
          <path
             inkscape:connector-curvature="0"
             id="path3588"
             style="fill:#009cd7;fill-opacity:1;fill-rule:nonzero;stroke:none"
             d="m 0,0 16.378,0 0,-4.287 -11.024,0 0,-3.597 10.074,0 0,-4.145 -10.074,0 0,-3.915 11.311,0 0,-4.605 L 0,-20.549 0,0 Z" />
        </g>
        <g
           transform="translate(408.9474,163.3756)"
           id="g3590">
          <path
             inkscape:connector-curvature="0"
             id="path3592"
             style="fill:#009cd7;fill-opacity:1;fill-rule:nonzero;stroke:none"
             d="m 0,0 -6.13,0 0,-15.945 -5.355,0 0,15.945 -6.127,0 0,4.604 L 0,4.604 0,0 Z" />
        </g>
        <path
           inkscape:connector-curvature="0"
           id="path3594"
           style="fill:#009cd7;fill-opacity:1;fill-rule:nonzero;stroke:none"
           d="m 409.765,167.98 5.351,0 0,-20.549 -5.351,0 0,20.549 z" />
        <g
           transform="translate(433.5796,163.3756)"
           id="g3596">
          <path
             inkscape:connector-curvature="0"
             id="path3598"
             style="fill:#009cd7;fill-opacity:1;fill-rule:nonzero;stroke:none"
             d="m 0,0 -6.132,0 0,-15.945 -5.354,0 0,15.945 -6.128,0 0,4.604 L 0,4.604 0,0 Z" />
        </g>
        <path
           inkscape:connector-curvature="0"
           id="path3600"
           style="fill:#009cd7;fill-opacity:1;fill-rule:nonzero;stroke:none"
           d="m 434.584,167.98 5.352,0 0,-20.549 -5.352,0 0,20.549 z" />
        <g
           transform="translate(451.2711,151.6053)"
           id="g3602">
          <path
             inkscape:connector-curvature="0"
             id="path3604"
             style="fill:#009cd7;fill-opacity:1;fill-rule:nonzero;stroke:none"
             d="m 0,0 c 3.457,0 4.779,3.049 4.779,6.102 0,3.05 -1.322,6.1 -4.779,6.1 -3.452,0 -4.778,-3.05 -4.778,-6.1 C -4.778,3.049 -3.452,0 0,0 m 0,16.806 c 6.477,0 10.133,-4.749 10.133,-10.704 0,-5.96 -3.656,-10.707 -10.133,-10.707 -6.474,0 -10.13,4.747 -10.13,10.707 0,5.955 3.656,10.704 10.13,10.704" />
        </g>
        <g
           transform="translate(461.9589,167.9797)"
           id="g3606">
          <path
             inkscape:connector-curvature="0"
             id="path3608"
             style="fill:#009cd7;fill-opacity:1;fill-rule:nonzero;stroke:none"
             d="m 0,0 5.496,0 7.136,-12.662 0.058,0 0,12.662 5.038,0 0,-20.549 -5.499,0 -7.135,12.809 -0.059,0 0,-12.809 -5.035,0 L 0,0 Z" />
        </g>
        <g
           transform="translate(383.5043,260.6019)"
           id="g3610">
          <path
             inkscape:connector-curvature="0"
             id="path3612"
             style="fill:#99989a;fill-opacity:1;fill-rule:nonzero;stroke:none"
             d="m 0,0 c 1.497,0 2.95,-0.137 4.338,-0.39 l 3.3,3.44 C 5.33,3.848 2.739,4.297 0,4.297 c -4.657,0 -8.885,-1.298 -12.02,-3.412 l 2.877,-2.726 C -6.484,-0.675 -3.354,0 0,0" />
        </g>
        <g
           transform="translate(383.5043,264.8989)"
           id="g3614">
          <path
             inkscape:connector-curvature="0"
             id="path3616"
             style="fill:#ffffff;fill-opacity:1;fill-rule:nonzero;stroke:none"
             d="m 0,0 c 2.739,0 5.33,-0.449 7.638,-1.247 l 3.589,3.736 C 7.878,3.809 4.059,4.559 0,4.559 c -6.05,0 -11.57,-1.666 -15.784,-4.405 l 3.764,-3.566 C -8.885,-1.298 -4.657,0 0,0" />
        </g>
        <g
           transform="translate(366.2726,250.2809)"
           id="g3618">
          <path
             inkscape:connector-curvature="0"
             id="path3620"
             style="fill:#99989a;fill-opacity:1;fill-rule:nonzero;stroke:none"
             d="M 0,0 C 0.302,1.233 0.859,2.403 1.628,3.484 L 0.182,4.945 C -0.105,4.047 -0.263,3.111 -0.263,2.148 -0.263,1.415 -0.172,0.699 0,0" />
        </g>
        <g
           transform="translate(355.5898,242.1958)"
           id="g3622">
          <path
             inkscape:connector-curvature="0"
             id="path3624"
             style="fill:#99989a;fill-opacity:1;fill-rule:nonzero;stroke:none"
             d="m 0,0 -0.607,-3.145 6.039,2.599 C 5.051,0.255 4.976,1.301 4.756,2.151 L 0,0 Z" />
        </g>
        <g
           transform="translate(351.3401,276.4153)"
           id="g3626">
          <path
             inkscape:connector-curvature="0"
             id="path3628"
             style="fill:#99989a;fill-opacity:1;fill-rule:nonzero;stroke:none"
             d="M 0,0 -8.74,-47.861 -4.606,-48.198 4.048,0.359 0,0 Z" />
        </g>
        <g
           transform="translate(380.7315,248.8735)"
           id="g3630">
          <path
             inkscape:connector-curvature="0"
             id="path3632"
             style="fill:#ed1d24;fill-opacity:1;fill-rule:nonzero;stroke:none"
             d="m 0,0 0,3.87 -6.348,6.018 -2.876,2.725 -3.765,3.567 -12.369,11.722 -8.657,-48.559 18.318,8.053 c -1.823,1.612 -3.116,3.33 -4.076,5.354 l -5.963,-2.56 0.598,3.131 3.864,20.14 0.322,1.69 3.191,-3.213 4.105,-4.134 1.762,-1.777 7.246,-6.241 -7.034,-3.223 c 1.827,-1.826 3.991,-3.432 6.908,-4.341 L 4.002,-3.837 0,0 Z" />
        </g>
        <g
           transform="translate(400.7349,250.2809)"
           id="g3634">
          <path
             inkscape:connector-curvature="0"
             id="path3636"
             style="fill:#99989a;fill-opacity:1;fill-rule:nonzero;stroke:none"
             d="m 0,0 c 0.171,0.699 0.264,1.415 0.264,2.148 0,2.162 -0.79,4.202 -2.15,5.975 L -3.97,5.965 C -1.969,4.3 -0.547,2.249 0,0" />
        </g>
        <g
           transform="translate(404.6523,229.7951)"
           id="g3638">
          <path
             inkscape:connector-curvature="0"
             id="path3640"
             style="fill:#99989a;fill-opacity:1;fill-rule:nonzero;stroke:none"
             d="M 0,0 -4.938,4.744 C -5.728,4.204 -6.572,3.705 -7.456,3.245 L 0,-3.913 22.989,20.033 22.964,23.911 0,0 Z" />
        </g>
        <g
           transform="translate(387.8992,245.8771)"
           id="g3642">
          <path
             inkscape:connector-curvature="0"
             id="path3644"
             style="fill:#99989a;fill-opacity:1;fill-rule:nonzero;stroke:none"
             d="M 0,0 -4.067,3.906 -7.179,6.877 -7.19,2.996 -2.815,-1.206 1.368,-5.223 c 1.062,0.264 2.079,0.599 3.035,0.995 L 0,0 Z" />
        </g>
        <g
           transform="translate(403.8844,267.5323)"
           id="g3646">
          <path
             inkscape:connector-curvature="0"
             id="path3648"
             style="fill:#99989a;fill-opacity:1;fill-rule:nonzero;stroke:none"
             d="m 0,0 -3.273,-3.407 -3.61,-3.762 -2.461,-2.562 -4.663,-4.857 1.953,-1.874 4.962,5.166 2.075,2.16 3.801,3.958 L 0,-3.911 12.642,-16.029 14.597,-14 0,0 Z" />
        </g>
        <g
           transform="translate(402.6687,262.3545)"
           id="g3650">
          <path
             inkscape:connector-curvature="0"
             id="path3652"
             style="fill:#ffffff;fill-opacity:1;fill-rule:nonzero;stroke:none"
             d="m 0,0 -3.801,-3.958 c 1.36,-1.772 2.132,-3.805 2.132,-5.968 0,-0.733 -0.094,-1.449 -0.265,-2.148 -0.444,-1.819 -1.44,-3.504 -2.863,-4.962 -1.456,-1.492 -3.358,-2.748 -5.57,-3.669 -0.956,-0.396 -1.972,-0.731 -3.035,-0.995 -1.804,-0.447 -3.743,-0.695 -5.762,-0.695 -2.488,0 -4.851,0.371 -6.993,1.038 -2.918,0.909 -5.42,2.367 -7.248,4.194 -0.667,0.665 -1.243,1.379 -1.719,2.135 -0.586,0.93 -1.019,1.919 -1.272,2.954 -0.172,0.699 -0.263,1.415 -0.263,2.148 0,0.963 0.158,1.899 0.445,2.798 l -4.366,4.42 c -1.599,-2.371 -2.5,-5.042 -2.5,-7.872 0,-0.728 0.067,-1.445 0.182,-2.149 0.28,-1.711 0.893,-3.342 1.785,-4.866 0.448,-0.765 0.967,-1.502 1.552,-2.207 1.536,-1.853 3.516,-3.48 5.837,-4.799 4.031,-2.294 9.078,-3.661 14.56,-3.661 3.835,0 7.456,0.668 10.667,1.854 0.975,0.36 1.91,0.767 2.804,1.219 2.07,1.047 3.907,2.328 5.44,3.791 2.572,2.458 4.29,5.427 4.822,8.669 0.115,0.704 0.182,1.421 0.182,2.149 C 4.751,-6.612 2.984,-2.95 0,0" />
        </g>
        <g
           transform="translate(387.8783,245.8484)"
           id="g3654">
          <path
             inkscape:connector-curvature="0"
             id="path3656"
             style="fill:#0066b3;fill-opacity:1;fill-rule:nonzero;stroke:none"
             d="m 0,0 4.388,-4.214 c 2.209,0.921 4.128,2.162 5.586,3.655 l -6.016,5.777 -1.954,1.875 4.638,4.83 2.459,2.562 3.611,3.763 3.274,3.407 L 30.548,7.673 28.594,5.637 16.663,-6.786 c -1.256,-1.721 -2.886,-3.249 -4.813,-4.569 L 16.753,-16.084 39.743,7.859 15.799,30.849 6.832,21.51 3.243,17.773 -0.06,14.333 -7.158,6.906 0,0 Z" />
        </g>
        <g
           transform="translate(367.6436,247.2079)"
           id="g3658">
          <path
             inkscape:connector-curvature="0"
             id="path3660"
             style="fill:#99989a;fill-opacity:1;fill-rule:nonzero;stroke:none"
             d="m 0,0 c 0,0 0.115,-0.189 0.128,-0.21 0.351,-0.558 0.833,-1.07 1.29,-1.579 L 8.571,1.515 -7.866,16.823 -8.314,14.455 4.581,1.688 0,0 Z" />
        </g>
        <g
           transform="translate(407.4195,251.7746)"
           id="g3662">
          <path
             inkscape:connector-curvature="0"
             id="path3664"
             style="fill:#99989a;fill-opacity:1;fill-rule:nonzero;stroke:none"
             d="m 0,0 c 0,-0.728 -0.067,-1.445 -0.182,-2.149 -0.532,-3.242 -2.25,-6.211 -4.822,-8.669 -1.533,-1.463 -3.37,-2.744 -5.44,-3.791 -0.894,-0.452 -1.829,-0.859 -2.804,-1.219 -3.211,-1.186 -6.832,-1.855 -10.667,-1.855 -5.482,0 -10.529,1.368 -14.559,3.662 -2.322,1.319 -4.302,2.946 -5.838,4.799 -0.585,0.705 -1.104,1.441 -1.551,2.207 -0.892,1.524 -1.506,3.155 -1.785,4.866 -0.116,0.704 -0.183,1.421 -0.183,2.149 0,0.229 0.017,0.455 0.028,0.681 -0.002,0.012 -0.006,0.029 -0.007,0.04 -0.117,-0.705 -0.021,-4.292 -0.021,-5.02 0,-1.153 0.154,-2.279 0.439,-3.371 0.223,-0.852 0.528,-1.68 0.909,-2.481 0.96,-2.025 2.4,-3.881 4.225,-5.493 4.389,-3.871 10.977,-6.336 18.343,-6.336 5.112,0 9.843,1.19 13.731,3.208 0.883,0.459 1.723,0.961 2.512,1.5 1.927,1.319 3.559,2.868 4.816,4.59 C -1.035,-10.189 0,-7.333 0,-4.299 0,-3.658 0.055,-0.625 -0.007,0.58 -0.018,0.745 0,0.209 0,0" />
        </g>
        <g
           transform="translate(343.179,222.6902)"
           id="g3666">
          <path
             inkscape:connector-curvature="0"
             id="path3668"
             style="fill:#000000;fill-opacity:1;fill-rule:nonzero;stroke:none"
             d="m 0,0 16.367,0 -1.542,-6.302 -7.844,0 -0.776,-3.312 8.184,0 -1.425,-5.839 -8.077,0 -1.94,-8.296 -8.454,0 L 0,0 Z" />
        </g>
        <g
           transform="translate(361.7706,222.6902)"
           id="g3670">
          <path
             inkscape:connector-curvature="0"
             id="path3672"
             style="fill:#000000;fill-opacity:1;fill-rule:nonzero;stroke:none"
             d="m 0,0 8.455,0 -5.507,-23.749 -8.455,0 L 0,0 Z" />
        </g>
        <g
           transform="translate(378.6814,211.367)"
           id="g3674">
          <path
             inkscape:connector-curvature="0"
             id="path3676"
             style="fill:#000000;fill-opacity:1;fill-rule:nonzero;stroke:none"
             d="m 0,0 c 2.715,0 4.615,1.603 4.615,3.881 0,1.211 -0.892,1.816 -2.637,1.816 -0.504,0 -0.776,-0.035 -1.319,-0.142 L -0.621,0.072 C -0.349,0.036 -0.31,0 0,0 m -6.244,11.181 0.543,0.071 c 2.715,0.32 6.089,0.534 7.951,0.534 3.102,0 5.507,-0.356 7.33,-1.104 2.327,-0.961 3.723,-3.062 3.723,-5.59 0,-2.172 -0.737,-4.237 -2.133,-5.839 C 9.967,-2.136 8.882,-2.812 6.632,-3.489 L 6.089,-3.667 c 0.233,-0.178 0.31,-0.25 0.427,-0.356 0.659,-0.748 2.637,-4.594 4.305,-8.403 l -9.308,0 c -1.203,3.382 -1.552,4.272 -3.142,8.118 l -1.861,-8.118 -8.223,0 5.469,23.607 z" />
        </g>
        <g
           transform="translate(412.0552,222.6902)"
           id="g3678">
          <path
             inkscape:connector-curvature="0"
             id="path3680"
             style="fill:#000000;fill-opacity:1;fill-rule:nonzero;stroke:none"
             d="m 0,0 20.515,0 -1.433,-6.875 -6.089,0 -4.034,-16.874 -8.455,0 4.035,16.874 -6.6,0 L 0,0 Z" />
        </g>
        <g
           transform="translate(424.916,201.1907)"
           id="g3682">
          <path
             inkscape:connector-curvature="0"
             id="path3684"
             style="fill:#000000;fill-opacity:1;fill-rule:nonzero;stroke:none"
             d="m 0,0 c 0.183,0 0.288,0.088 0.288,0.255 0,0.16 -0.096,0.248 -0.28,0.248 -0.04,0 -0.047,0 -0.088,-0.009 l 0,-0.486 C -0.048,0 -0.032,0 0,0 m -0.742,0.989 c 0.105,0.008 0.121,0.015 0.327,0.031 0.208,0.017 0.295,0.025 0.383,0.025 0.678,0 1.012,-0.264 1.012,-0.766 0,-0.303 -0.126,-0.486 -0.398,-0.59 L 0.55,-0.319 c 0.024,-0.016 0.032,-0.024 0.04,-0.039 0.072,-0.064 0.311,-0.423 0.511,-0.75 l -0.774,0 c -0.16,0.295 -0.207,0.375 -0.407,0.709 l 0,-0.709 -0.662,0 0,2.097 z m 0.798,-2.862 c 1.004,0 1.809,0.805 1.809,1.801 0,1.005 -0.805,1.81 -1.809,1.81 -0.996,0 -1.802,-0.805 -1.802,-1.802 0,-1.012 0.798,-1.809 1.802,-1.809 m 0,3.866 c 1.139,0 2.064,-0.917 2.064,-2.057 0,-1.148 -0.917,-2.065 -2.064,-2.065 -1.157,0 -2.058,0.902 -2.058,2.065 0,1.148 0.909,2.057 2.058,2.057" />
        </g>
        <g
           transform="translate(390.3344,199.5445)"
           id="g3686">
          <path
             inkscape:connector-curvature="0"
             id="path3688"
             style="fill:#000000;fill-opacity:1;fill-rule:nonzero;stroke:none"
             d="m 0,0 c 2.377,-0.706 4.976,-1.102 7.405,-1.102 3.297,0 5.818,0.747 7.99,2.314 2.404,1.71 3.956,4.344 3.956,6.729 0,1.603 -0.698,3.063 -1.94,4.096 -0.97,0.783 -1.978,1.388 -4.033,2.349 L 11.71,15.17 c -0.543,0.285 -0.815,0.569 -0.815,0.89 0,0.854 1.086,1.495 2.56,1.495 1.103,0 2.417,-0.32 4.928,-1.141 l 1.733,6.428 c -1.878,0.511 -3.707,0.766 -5.536,0.766 -6.904,0 -12.217,-3.774 -12.217,-8.652 0,-2.563 1.707,-4.379 5.973,-6.374 C 10.352,7.657 10.702,7.407 10.702,6.767 10.702,5.806 9.654,5.2 7.948,5.2 6.435,5.2 4.496,5.663 1.859,6.624 L 1.856,6.623 0,0 Z" />
        </g>
      </g>
    </g>
  </g>
</svg>
