<svg id="svg" version="1.1" width="400" height="400" xmlns="http://www.w3.org/2000/svg" xmlns:xlink="http://www.w3.org/1999/xlink" style="display: block;"><g id="svgg"><path id="path0" d="M203.682 250.275 C 203.442 250.900,203.685 251.300,204.303 251.300 C 204.833 251.300,204.900 251.233,204.900 250.700 C 204.900 250.018,203.913 249.673,203.682 250.275 M195.082 252.475 C 194.842 253.100,195.085 253.500,195.703 253.500 C 196.233 253.500,196.300 253.433,196.300 252.900 C 196.300 252.218,195.313 251.873,195.082 252.475 M213.714 252.514 C 213.541 252.687,213.400 253.026,213.400 253.267 C 213.400 255.070,209.684 260.878,207.790 262.034 C 207.490 262.217,207.185 262.463,207.113 262.579 C 206.497 263.576,202.970 264.782,200.635 264.793 C 197.246 264.809,192.200 262.045,192.200 260.172 C 192.200 259.382,191.907 259.000,191.300 259.000 C 189.445 259.000,190.260 261.928,192.616 263.729 C 200.093 269.444,210.102 266.064,214.387 256.375 C 215.718 253.367,215.294 250.935,213.714 252.514 " stroke="none" fill="#000000" fill-rule="evenodd"></path><path id="path1" d="" stroke="none" fill="#1a1a1a" fill-rule="evenodd"></path><path id="path2" d="" stroke="none" fill="#323232" fill-rule="evenodd"></path><path id="path3" d="M281.046 150.400 C 281.046 150.785,281.088 150.942,281.138 150.750 C 281.188 150.558,281.188 150.243,281.138 150.050 C 281.088 149.858,281.046 150.015,281.046 150.400 " stroke="none" fill="#a9a9a9" fill-rule="evenodd"></path><path id="path4" d="M197.600 9.923 C 154.368 12.728,120.906 74.120,118.879 154.350 L 118.741 159.800 200.000 159.800 L 281.259 159.800 281.121 154.350 C 279.013 70.919,242.071 7.036,197.600 9.923 M155.167 72.731 L 163.234 72.864 163.412 73.332 C 163.625 73.892,163.666 73.897,164.342 73.454 C 166.137 72.278,174.376 73.031,180.200 74.902 C 182.997 75.801,182.902 75.714,182.490 76.971 C 181.562 79.810,183.344 81.365,185.253 79.383 C 185.792 78.824,186.256 78.397,186.283 78.433 C 186.310 78.470,186.799 79.070,187.371 79.766 C 191.509 84.810,193.306 89.105,194.872 97.700 C 195.664 102.045,195.674 101.881,194.604 102.000 L 193.708 102.100 194.754 102.850 L 195.800 103.599 195.800 106.780 C 195.800 111.039,195.371 113.441,193.721 118.420 C 193.007 120.576,192.264 123.106,192.072 124.043 C 191.749 125.608,191.663 125.785,191.010 126.223 C 190.620 126.485,189.040 127.927,187.500 129.426 C 185.327 131.542,184.543 132.183,184.000 132.290 C 183.615 132.366,182.355 132.735,181.200 133.110 C 175.049 135.107,169.640 135.492,166.731 134.140 L 165.362 133.504 164.870 134.076 L 164.378 134.648 154.420 134.697 L 144.463 134.745 144.481 130.393 C 144.498 126.434,144.529 126.057,144.826 126.215 C 145.258 126.445,145.461 123.935,145.418 118.900 C 145.366 112.855,145.706 105.437,146.082 104.415 C 146.401 103.547,146.398 103.519,145.939 103.015 L 145.472 102.500 145.497 91.924 L 145.522 81.348 142.766 81.488 L 140.011 81.628 140.055 76.986 L 140.100 72.345 143.600 72.472 C 145.525 72.542,150.730 72.658,155.167 72.731 M228.196 73.014 L 229.493 73.627 230.871 73.086 C 232.114 72.598,232.399 72.559,233.774 72.688 C 234.614 72.766,238.585 72.943,242.600 73.082 L 249.900 73.334 251.800 73.980 C 253.720 74.632,256.292 75.896,257.186 76.626 L 257.672 77.022 257.136 77.519 C 255.618 78.927,257.945 81.869,259.677 80.733 L 260.153 80.422 260.588 82.261 C 261.484 86.052,261.689 88.509,261.177 89.338 L 260.730 90.060 261.161 90.408 C 261.570 90.740,261.575 90.788,261.275 91.389 C 261.102 91.737,260.880 92.669,260.783 93.461 C 260.273 97.626,259.232 99.409,256.509 100.780 C 255.186 101.446,255.171 101.416,257.129 102.002 C 259.259 102.641,262.004 105.225,262.802 107.344 C 263.983 110.482,264.691 117.543,263.891 118.208 C 262.848 119.073,262.785 119.441,263.484 120.574 C 265.242 123.425,261.491 130.430,257.158 132.386 C 253.342 134.108,246.159 134.802,232.300 134.787 C 225.653 134.779,225.325 134.762,225.796 134.440 C 226.585 133.899,227.024 133.401,226.895 133.193 C 226.581 132.683,224.470 133.288,223.355 134.207 L 222.632 134.803 218.391 134.881 L 214.149 134.959 214.273 133.930 C 214.573 131.425,214.645 125.531,214.413 122.380 L 214.169 119.060 214.753 117.772 L 215.337 116.483 214.661 114.792 L 213.985 113.100 214.111 97.163 L 214.237 81.225 213.532 81.093 C 212.643 80.926,209.227 81.071,208.718 81.298 C 208.385 81.445,208.353 81.405,208.467 80.984 C 208.540 80.718,208.707 78.712,208.839 76.526 L 209.079 72.551 215.190 72.676 C 218.550 72.745,222.200 72.724,223.300 72.630 C 226.651 72.342,226.802 72.354,228.196 73.014 M218.423 76.716 C 218.190 77.012,218.000 77.320,218.000 77.401 C 218.000 77.483,217.644 77.606,217.209 77.675 C 216.295 77.822,215.948 78.267,216.243 78.915 C 216.896 80.347,219.158 79.895,220.100 78.144 C 220.865 76.723,219.399 75.475,218.423 76.716 M234.470 80.657 L 234.285 81.300 228.893 81.400 L 223.500 81.500 223.484 83.300 C 223.475 84.290,223.430 87.815,223.384 91.133 C 223.338 94.451,223.347 97.213,223.404 97.270 C 223.661 97.528,229.865 97.914,231.900 97.798 C 233.399 97.713,234.601 97.761,235.671 97.948 C 237.085 98.196,237.279 98.191,237.601 97.899 C 237.891 97.637,238.530 97.563,240.930 97.515 C 245.187 97.430,248.147 96.626,250.206 94.995 L 250.987 94.377 251.732 94.883 C 252.677 95.525,252.667 95.547,252.182 93.831 C 251.785 92.429,251.783 92.354,252.123 91.343 C 254.120 85.409,249.073 81.757,237.959 81.091 C 236.450 81.001,235.746 80.876,235.575 80.670 C 235.008 79.987,234.663 79.983,234.470 80.657 M154.764 81.830 C 154.376 83.116,154.436 87.276,154.881 90.000 C 155.146 91.616,155.216 92.687,155.118 93.600 L 154.978 94.900 154.183 94.910 C 152.982 94.925,152.164 95.822,152.045 97.254 C 151.941 98.517,152.520 99.200,153.697 99.200 L 154.340 99.200 154.453 103.650 C 154.515 106.097,154.515 112.021,154.452 116.814 C 154.390 121.606,154.396 125.756,154.466 126.035 L 154.593 126.543 158.147 126.721 C 174.385 127.538,179.089 125.955,184.427 117.878 C 185.955 115.567,186.776 110.666,186.093 107.942 C 185.982 107.502,186.044 107.422,186.590 107.302 C 188.026 106.987,188.108 104.200,186.681 104.200 C 186.412 104.200,186.356 103.900,185.988 100.500 C 185.304 94.195,184.048 90.365,181.797 87.734 C 181.249 87.092,180.800 86.492,180.800 86.399 C 180.800 85.824,179.714 85.010,178.643 84.782 C 178.014 84.648,177.050 84.253,176.500 83.905 C 173.338 81.900,170.803 81.496,158.863 81.091 L 155.026 80.960 154.764 81.830 M223.598 106.900 C 223.598 107.230,223.501 110.650,223.384 114.500 C 223.266 118.350,223.231 122.591,223.304 123.925 L 223.437 126.351 225.800 126.492 C 227.100 126.569,229.544 126.633,231.232 126.633 L 234.300 126.632 235.970 127.538 L 237.641 128.443 238.470 127.649 L 239.300 126.854 243.000 126.528 C 247.840 126.102,250.645 125.295,252.580 123.773 C 252.995 123.446,253.257 123.403,254.155 123.515 L 255.231 123.650 254.635 122.469 C 254.065 121.339,254.052 121.259,254.340 120.594 C 257.015 114.418,255.115 108.833,249.621 106.729 C 248.518 106.307,248.302 106.300,236.050 106.300 L 223.600 106.300 223.598 106.900 M150.800 128.140 C 150.635 128.200,150.230 128.495,149.900 128.796 C 149.570 129.096,148.874 129.456,148.354 129.596 C 146.122 130.195,146.833 131.215,150.182 132.218 C 151.002 132.464,151.059 132.453,151.427 131.988 C 153.207 129.740,152.826 127.406,150.800 128.140 M145.800 294.000 L 145.800 367.400 200.200 367.400 L 254.600 367.400 254.600 294.000 L 254.600 220.600 200.200 220.600 L 145.800 220.600 145.800 294.000 M223.126 226.916 C 223.882 227.200,224.635 227.542,224.800 227.677 C 224.965 227.812,225.335 228.022,225.622 228.144 C 226.607 228.563,226.405 229.805,225.306 230.081 C 224.751 230.220,223.400 229.745,223.400 229.410 C 223.400 229.295,223.197 229.197,222.950 229.193 C 222.703 229.189,222.275 229.057,222.000 228.900 C 220.455 228.017,214.539 228.667,212.902 229.900 C 210.171 231.958,209.600 233.025,209.600 236.075 C 209.600 239.768,210.845 241.558,214.200 242.685 C 214.805 242.888,215.885 243.350,216.600 243.711 C 217.315 244.072,218.125 244.426,218.400 244.499 C 218.675 244.571,219.260 244.796,219.700 244.999 C 220.734 245.476,221.705 245.830,223.800 246.496 C 224.735 246.793,226.032 247.298,226.682 247.618 C 227.332 247.938,227.976 248.200,228.112 248.200 C 228.878 248.200,230.842 250.091,231.617 251.575 C 232.055 252.414,232.597 253.390,232.822 253.744 C 234.178 255.884,234.989 267.045,233.967 269.500 C 233.784 269.940,233.410 270.889,233.136 271.608 C 232.206 274.048,229.249 277.554,226.839 279.076 C 226.396 279.355,225.914 279.745,225.767 279.942 C 225.289 280.583,223.134 282.125,221.631 282.900 C 220.823 283.317,219.910 283.870,219.602 284.129 C 218.885 284.733,218.293 284.727,217.890 284.113 C 217.335 283.266,218.156 282.358,220.779 280.917 C 221.703 280.410,223.109 279.433,223.904 278.747 C 224.699 278.061,225.648 277.275,226.014 277.000 C 228.286 275.289,230.489 272.674,230.998 271.081 C 231.136 270.652,231.440 269.985,231.674 269.600 C 232.282 268.601,232.325 259.237,231.731 257.299 C 231.529 256.640,231.271 255.785,231.157 255.400 C 231.044 255.015,230.751 254.430,230.505 254.100 C 230.259 253.770,229.989 253.284,229.906 253.021 C 229.510 251.768,228.361 250.641,226.900 250.071 C 226.570 249.943,225.439 249.482,224.388 249.048 C 223.336 248.614,222.121 248.192,221.688 248.111 C 221.254 248.030,220.810 247.892,220.700 247.805 C 220.454 247.608,217.936 246.600,217.692 246.600 C 217.595 246.600,216.792 246.242,215.907 245.805 C 215.023 245.368,213.805 244.841,213.200 244.633 C 212.595 244.426,211.750 244.018,211.322 243.728 C 210.894 243.438,210.480 243.200,210.401 243.200 C 210.145 243.200,208.000 240.378,207.994 240.034 C 207.990 239.850,207.855 239.525,207.694 239.312 C 207.276 238.760,207.290 234.389,207.714 232.729 C 208.116 231.160,209.111 230.078,212.386 227.652 C 214.197 226.310,220.385 225.886,223.126 226.916 M188.673 233.615 C 190.080 234.721,189.054 235.599,186.350 235.603 C 183.618 235.607,183.249 235.900,181.695 239.291 C 181.093 240.606,180.600 241.767,180.600 241.871 C 180.600 241.975,180.382 242.519,180.115 243.080 C 179.849 243.641,179.516 244.409,179.376 244.787 C 178.972 245.874,176.461 248.329,175.493 248.582 C 175.033 248.702,174.400 249.087,174.021 249.479 L 173.355 250.165 173.328 253.066 C 173.303 255.617,173.252 256.035,172.900 256.534 C 172.680 256.847,172.275 257.533,172.000 258.060 C 171.725 258.587,171.233 259.307,170.907 259.659 C 169.789 260.867,168.360 262.700,168.184 263.153 C 168.087 263.402,167.821 263.858,167.593 264.167 C 166.870 265.145,165.012 270.457,164.994 271.600 C 164.988 271.985,164.853 272.660,164.694 273.100 C 164.499 273.642,164.405 274.751,164.403 276.535 L 164.400 279.169 165.708 280.535 C 166.427 281.286,167.724 282.620,168.590 283.500 C 170.180 285.116,171.791 287.643,171.797 288.531 C 171.799 288.768,172.028 289.623,172.308 290.431 C 172.754 291.722,172.830 292.348,172.936 295.600 L 173.057 299.300 172.507 300.600 C 172.205 301.315,171.806 302.333,171.621 302.862 C 171.131 304.260,170.391 304.591,169.576 303.776 C 169.103 303.303,169.151 301.916,169.669 301.113 C 171.652 298.038,170.410 288.702,167.661 286.015 C 165.826 284.222,162.479 280.514,162.259 280.030 C 161.896 279.233,161.924 274.113,162.298 272.882 C 162.462 272.342,162.597 271.605,162.598 271.244 C 162.599 270.883,162.735 270.264,162.900 269.869 C 163.065 269.474,163.200 268.934,163.200 268.668 C 163.200 268.402,163.380 267.830,163.601 267.398 C 163.821 266.966,164.126 266.137,164.278 265.556 C 164.550 264.510,164.892 263.838,166.135 261.900 C 167.205 260.232,167.658 259.629,168.658 258.542 C 169.185 257.969,169.838 257.033,170.109 256.462 C 170.379 255.890,170.691 255.368,170.800 255.300 C 170.912 255.231,171.000 254.291,171.000 253.175 C 171.000 250.976,170.941 250.912,169.657 251.721 C 167.972 252.783,162.969 253.129,161.300 252.299 C 156.615 249.971,153.997 246.561,153.657 242.347 C 153.422 239.426,158.332 238.115,162.900 239.881 C 165.306 240.811,165.516 240.904,166.784 241.605 C 167.991 242.272,170.396 244.931,171.437 246.750 C 172.097 247.903,172.348 248.010,172.919 247.379 C 173.355 246.896,174.637 246.200,175.089 246.200 C 175.429 246.200,177.200 244.050,177.200 243.637 C 177.200 243.493,177.479 242.773,177.820 242.037 C 178.160 241.302,178.509 240.520,178.595 240.300 C 178.820 239.720,179.167 238.998,179.603 238.200 C 179.814 237.815,180.080 237.174,180.194 236.776 C 180.477 235.789,181.042 235.120,182.470 234.081 L 183.680 233.200 185.913 233.200 C 187.869 233.200,188.211 233.251,188.673 233.615 M158.000 241.596 C 156.814 241.783,155.999 242.129,156.003 242.445 C 156.010 243.107,156.958 245.562,157.402 246.065 C 158.671 247.506,160.534 249.198,160.852 249.199 C 161.045 249.199,161.494 249.478,161.849 249.817 L 162.495 250.434 164.497 250.341 C 165.599 250.289,166.905 250.132,167.400 249.991 C 168.391 249.710,170.000 249.017,170.000 248.873 C 170.000 248.215,166.428 244.000,165.871 244.000 C 165.739 244.000,165.373 243.783,165.058 243.518 C 164.240 242.829,160.514 241.394,159.629 241.427 C 159.228 241.441,158.495 241.517,158.000 241.596 M205.034 249.931 C 205.719 250.550,205.251 251.800,204.335 251.800 C 203.800 251.800,203.200 251.237,203.200 250.735 C 203.200 249.776,204.321 249.285,205.034 249.931 M196.434 252.131 C 197.119 252.750,196.651 254.000,195.735 254.000 C 195.200 254.000,194.600 253.437,194.600 252.935 C 194.600 251.976,195.721 251.485,196.434 252.131 M215.175 252.125 C 216.895 253.330,212.608 261.232,208.669 264.117 C 203.726 267.737,197.121 267.703,192.539 264.035 C 192.120 263.700,191.714 263.398,191.636 263.363 C 190.509 262.863,189.747 259.832,190.531 258.966 C 191.246 258.176,192.400 258.774,192.400 259.934 C 192.400 262.495,199.293 265.327,203.077 264.321 C 207.171 263.232,212.617 257.339,213.141 253.431 C 213.320 252.099,214.268 251.490,215.175 252.125 M190.166 270.990 C 190.952 271.216,192.985 272.527,193.128 272.902 C 193.184 273.046,193.450 273.220,193.721 273.287 C 193.992 273.355,194.321 273.647,194.453 273.936 C 194.585 274.225,194.919 274.712,195.196 275.018 C 197.684 277.765,198.744 281.301,197.677 283.300 C 197.501 283.630,197.134 284.485,196.861 285.200 L 196.364 286.500 196.828 287.350 C 197.083 287.818,197.373 288.200,197.472 288.200 C 197.571 288.200,198.112 288.674,198.676 289.253 C 199.703 290.310,202.358 292.000,202.991 292.000 C 203.376 292.000,205.198 292.583,205.500 292.802 C 205.610 292.882,206.027 293.007,206.426 293.078 C 206.825 293.150,207.376 293.409,207.650 293.654 C 207.924 293.900,208.543 294.316,209.024 294.581 C 210.479 295.380,213.000 297.558,213.000 298.015 C 213.000 298.111,213.269 298.329,213.597 298.499 C 213.960 298.686,214.241 299.021,214.314 299.354 C 214.380 299.654,214.561 300.239,214.717 300.654 C 215.642 303.119,215.052 305.828,213.165 307.781 C 212.056 308.927,210.018 312.036,209.353 313.594 C 208.882 314.696,208.800 315.164,208.800 316.741 L 208.800 318.593 209.662 319.446 C 211.279 321.047,213.038 322.389,213.530 322.396 C 213.656 322.398,214.646 322.865,215.730 323.434 C 219.099 325.202,219.489 325.387,219.864 325.394 C 220.321 325.402,222.000 326.372,222.000 326.628 C 222.000 326.732,222.393 327.241,222.874 327.759 C 224.181 329.167,224.374 329.682,224.525 332.169 C 224.746 335.806,223.886 337.279,220.083 339.784 C 219.213 340.358,218.385 341.046,218.244 341.314 C 218.103 341.581,217.908 341.800,217.811 341.800 C 217.315 341.800,216.800 343.557,216.800 345.249 C 216.800 347.129,217.158 348.002,218.200 348.659 C 218.475 348.833,219.066 349.237,219.512 349.557 C 219.959 349.877,220.544 350.192,220.812 350.256 C 224.529 351.151,226.428 352.772,225.200 354.000 C 224.684 354.516,224.409 354.504,223.564 353.930 C 223.183 353.672,222.203 353.258,221.386 353.010 C 219.603 352.468,219.023 352.180,217.789 351.226 C 217.273 350.827,216.591 350.359,216.275 350.187 C 213.950 348.920,213.700 341.431,215.942 340.231 C 216.148 340.121,216.444 339.791,216.601 339.497 C 216.758 339.204,217.217 338.795,217.621 338.589 C 218.683 338.048,220.791 336.313,221.573 335.339 L 222.246 334.500 222.117 332.453 C 222.007 330.719,221.920 330.334,221.544 329.935 C 221.300 329.675,220.804 329.128,220.443 328.717 C 220.030 328.248,219.288 327.760,218.443 327.402 C 216.827 326.717,215.409 326.018,215.000 325.704 C 214.835 325.578,214.028 325.172,213.206 324.801 C 211.592 324.074,210.533 323.450,209.900 322.853 C 209.680 322.646,209.106 322.167,208.624 321.788 C 208.143 321.410,207.445 320.705,207.074 320.221 L 206.400 319.342 206.400 316.759 C 206.400 313.998,206.348 314.204,207.825 311.100 C 208.280 310.146,210.562 307.063,211.749 305.800 L 212.595 304.900 212.598 303.263 C 212.601 300.956,212.497 300.747,210.200 298.453 C 208.969 297.224,208.865 297.145,207.500 296.403 C 206.840 296.045,206.215 295.672,206.110 295.576 C 206.005 295.479,205.780 295.399,205.610 295.398 C 205.440 295.397,204.850 295.175,204.300 294.904 C 203.750 294.634,202.983 294.410,202.595 294.406 C 202.129 294.402,201.521 294.156,200.795 293.677 C 200.193 293.280,199.501 292.878,199.258 292.785 C 198.753 292.592,198.469 292.371,197.161 291.150 C 196.644 290.668,195.994 290.170,195.716 290.044 C 195.435 289.916,195.151 289.573,195.075 289.270 C 195.000 288.971,194.719 288.406,194.451 288.013 C 193.819 287.088,193.902 286.294,194.888 283.830 C 195.883 281.343,195.732 279.429,194.417 277.851 C 191.088 273.856,190.179 273.201,187.964 273.197 C 185.948 273.193,185.324 272.934,185.239 272.065 C 185.126 270.907,187.825 270.319,190.166 270.990 M238.802 286.864 C 240.527 288.026,241.695 290.392,242.102 293.550 C 242.264 294.805,242.234 294.800,243.532 293.816 C 246.284 291.729,248.654 292.088,250.050 294.802 C 251.036 296.718,250.973 299.329,249.905 300.854 C 249.098 302.006,246.340 303.800,245.375 303.800 C 244.968 303.800,244.872 304.097,245.211 304.307 C 245.762 304.647,246.443 306.741,246.542 308.400 C 246.721 311.380,245.504 312.790,242.750 312.797 C 241.177 312.801,241.161 312.834,241.811 314.683 C 242.660 317.099,243.126 326.891,242.599 331.244 C 242.475 332.265,242.322 333.933,242.260 334.950 L 242.145 336.800 243.651 336.800 C 245.624 336.800,246.025 337.095,246.153 338.641 C 246.359 341.119,244.603 343.200,242.308 343.200 C 241.497 343.200,241.485 343.230,241.199 345.800 C 241.002 347.577,240.702 349.379,240.167 352.000 C 240.043 352.605,239.787 353.377,239.598 353.716 C 239.408 354.055,239.141 354.685,239.004 355.116 C 238.493 356.722,237.002 359.572,236.608 359.698 C 235.101 360.176,234.849 358.291,236.122 356.064 C 236.385 355.605,236.600 355.110,236.600 354.964 C 236.600 354.819,236.853 354.160,237.162 353.500 C 237.470 352.840,237.832 351.805,237.965 351.200 C 238.799 347.416,239.191 344.624,239.375 341.159 C 239.453 339.708,239.595 338.724,239.750 338.569 C 239.919 338.400,240.001 337.607,240.004 336.110 C 240.006 334.895,240.139 332.820,240.298 331.500 C 240.457 330.180,240.590 328.305,240.594 327.333 L 240.600 325.566 239.663 326.391 C 239.148 326.844,238.563 327.484,238.364 327.812 C 237.816 328.712,237.148 328.945,236.288 328.535 C 235.902 328.351,235.314 328.200,234.981 328.200 C 234.049 328.200,232.350 327.307,231.931 326.598 C 230.963 324.960,232.893 320.798,235.395 319.130 C 236.018 318.714,237.599 318.701,239.125 319.098 C 239.755 319.262,240.287 319.375,240.308 319.348 C 240.447 319.168,239.950 316.287,239.612 315.319 C 239.386 314.669,239.200 313.847,239.200 313.493 C 239.200 312.615,238.758 311.627,237.912 310.614 L 237.203 309.766 236.997 310.333 C 235.479 314.521,230.727 314.939,228.730 311.060 C 228.238 310.105,228.266 306.548,228.773 305.553 C 228.978 305.151,229.201 304.543,229.270 304.202 C 229.338 303.860,229.662 303.192,229.989 302.716 L 230.585 301.850 229.842 301.727 C 229.434 301.660,228.614 301.603,228.021 301.602 C 226.732 301.600,225.590 300.970,224.747 299.797 C 223.459 298.005,224.374 293.704,226.148 293.211 C 227.535 292.826,231.737 293.112,233.218 293.693 C 233.499 293.804,233.525 293.580,233.443 291.750 C 233.362 289.936,233.403 289.574,233.776 288.803 C 234.009 288.320,234.200 287.802,234.200 287.652 C 234.200 286.078,236.938 285.609,238.802 286.864 M196.767 294.519 C 197.880 295.299,197.131 296.311,194.364 297.766 C 192.941 298.515,192.212 298.989,191.554 299.596 C 190.680 300.401,189.963 301.043,189.012 301.871 C 187.763 302.959,185.600 305.956,185.600 306.599 C 185.600 306.770,185.471 307.096,185.313 307.321 C 184.613 308.320,182.684 314.617,182.399 316.833 C 182.305 317.566,182.072 318.466,181.882 318.833 C 181.692 319.200,181.417 320.130,181.271 320.900 C 181.126 321.670,180.919 322.480,180.813 322.700 C 179.991 324.393,179.391 325.982,179.116 327.187 C 178.939 327.968,178.529 329.122,178.205 329.753 C 177.881 330.384,177.384 331.395,177.101 332.000 C 176.237 333.848,175.999 334.200,174.829 335.371 C 173.464 336.736,171.980 337.738,170.900 338.023 C 170.460 338.139,169.536 338.451,168.846 338.717 C 163.946 340.605,157.707 337.553,158.797 333.801 C 158.909 333.417,159.000 332.757,159.000 332.334 C 159.000 331.466,159.509 329.205,159.908 328.300 C 160.053 327.970,160.226 327.520,160.292 327.300 C 160.357 327.080,160.771 326.585,161.211 326.200 C 161.651 325.815,162.327 325.207,162.712 324.850 C 163.512 324.108,163.789 324.058,164.367 324.550 C 165.092 325.168,165.012 326.014,164.161 326.748 C 162.139 328.492,161.549 329.803,161.320 333.060 C 161.176 335.110,161.265 335.346,162.509 336.185 C 163.575 336.905,166.516 337.076,168.093 336.511 C 168.537 336.352,169.408 336.082,170.029 335.911 C 172.045 335.357,175.600 331.363,175.600 329.653 C 175.600 329.524,175.824 329.088,176.097 328.685 C 176.592 327.956,176.997 326.818,176.999 326.148 C 176.999 325.955,177.391 324.875,177.869 323.748 C 178.347 322.622,178.850 321.115,178.986 320.400 C 179.122 319.685,179.406 318.706,179.617 318.225 C 179.827 317.743,180.000 316.906,180.000 316.365 C 180.000 315.823,180.124 315.137,180.276 314.840 C 180.428 314.543,180.615 313.985,180.692 313.600 C 181.583 309.145,184.223 303.473,186.464 301.199 C 188.927 298.701,192.196 296.005,192.778 295.994 C 192.955 295.990,193.685 295.585,194.400 295.094 C 195.829 294.112,196.093 294.048,196.767 294.519 " stroke="none" fill="#ffffff" fill-rule="evenodd"></path><path id="path5" d="M74.256 182.050 C 87.603 194.288,108.260 213.234,120.161 224.153 L 141.800 244.007 141.803 232.053 C 141.804 225.479,141.853 219.920,141.911 219.700 C 141.996 219.374,137.251 214.942,116.158 195.651 C 101.936 182.644,87.330 169.262,83.700 165.913 L 77.100 159.824 63.545 159.812 L 49.990 159.800 74.256 182.050 M122.202 166.048 C 124.163 169.487,131.412 182.268,138.311 194.450 L 150.855 216.600 161.850 216.600 L 172.846 216.600 172.558 216.150 C 172.312 215.767,155.588 186.082,144.304 166.000 L 140.876 159.900 129.757 159.848 L 118.637 159.797 122.202 166.048 M255.969 166.050 C 254.026 169.488,246.836 182.200,239.991 194.300 C 233.145 206.400,227.507 216.368,227.460 216.450 C 227.414 216.532,232.318 216.600,238.358 216.600 L 249.340 216.600 261.887 194.550 C 268.788 182.423,275.989 169.786,277.889 166.469 C 279.788 163.152,281.398 160.295,281.465 160.119 C 281.576 159.829,280.574 159.800,270.544 159.800 L 259.500 159.800 255.969 166.050 M315.613 166.364 C 311.716 169.959,297.284 183.205,283.543 195.800 L 258.560 218.700 258.588 231.192 C 258.604 238.062,258.636 243.702,258.658 243.725 C 258.692 243.758,300.732 205.401,342.250 167.455 C 347.078 163.043,349.800 160.419,349.800 160.177 C 349.800 159.811,349.401 159.800,336.250 159.814 L 322.700 159.827 315.613 166.364 M190.250 260.300 C 190.253 260.740,190.294 260.896,190.341 260.648 C 190.389 260.399,190.387 260.039,190.337 259.848 C 190.287 259.656,190.248 259.860,190.250 260.300 M200.150 264.745 C 200.508 264.789,201.093 264.789,201.450 264.745 C 201.808 264.700,201.515 264.664,200.800 264.664 C 200.085 264.664,199.793 264.700,200.150 264.745 M200.050 266.747 C 200.572 266.788,201.428 266.788,201.950 266.747 C 202.472 266.706,202.045 266.672,201.000 266.672 C 199.955 266.672,199.528 266.706,200.050 266.747 " stroke="none" fill="#4f5d73" fill-rule="evenodd"></path><path id="path6" d="M235.343 286.601 C 233.960 287.692,233.164 291.183,233.797 293.388 C 234.031 294.207,233.970 294.305,233.411 294.006 C 232.088 293.298,227.256 292.965,226.120 293.504 C 224.540 294.253,223.780 297.995,224.879 299.612 C 225.763 300.913,226.661 301.341,228.772 301.466 C 231.056 301.601,230.967 301.503,230.109 302.925 C 229.720 303.571,229.401 304.238,229.401 304.408 C 229.400 304.577,229.220 305.068,229.000 305.500 C 227.320 308.795,229.612 313.622,232.844 313.594 C 234.325 313.582,236.445 311.823,236.737 310.366 C 236.926 309.421,237.167 309.497,238.469 310.905 C 239.823 312.370,240.310 312.561,242.760 312.588 C 246.356 312.629,247.634 308.570,245.223 304.768 C 244.611 303.804,244.612 303.600,245.228 303.600 C 246.659 303.600,249.792 301.133,250.181 299.700 C 251.614 294.418,247.807 290.957,243.796 293.896 C 241.949 295.249,242.108 295.277,241.844 293.550 C 241.493 291.258,241.411 290.977,240.634 289.402 C 239.402 286.904,236.742 285.496,235.343 286.601 M241.048 296.644 C 242.479 297.444,243.069 298.902,242.890 301.195 L 242.745 303.040 241.512 304.670 L 240.278 306.300 238.324 306.246 C 234.000 306.128,232.038 303.372,233.020 298.795 C 233.267 297.643,234.009 297.003,235.100 297.000 C 235.430 296.999,236.150 296.766,236.700 296.482 C 237.939 295.842,239.734 295.909,241.048 296.644 " stroke="none" fill="#9c27b0" fill-rule="evenodd"></path><path id="path7" d="M140.252 76.919 L 140.205 81.456 143.025 81.354 L 145.845 81.253 145.705 82.376 C 145.503 84.003,145.502 84.354,145.677 90.300 C 145.781 93.785,145.760 96.870,145.621 98.998 L 145.404 102.296 145.973 102.866 L 146.543 103.435 146.185 104.667 C 145.732 106.224,145.314 118.670,145.669 120.000 C 145.824 120.580,145.816 121.180,145.641 122.202 C 145.508 122.975,145.400 124.284,145.400 125.111 C 145.400 126.523,145.377 126.602,145.022 126.412 C 144.660 126.218,144.648 126.296,144.737 128.255 C 144.788 129.380,144.754 131.262,144.660 132.439 L 144.491 134.577 154.395 134.561 L 164.300 134.545 164.828 133.923 L 165.355 133.301 166.801 134.001 L 168.247 134.700 171.273 134.691 C 174.790 134.681,176.510 134.392,180.690 133.110 C 182.236 132.636,183.770 132.185,184.100 132.109 C 184.497 132.016,185.615 131.075,187.400 129.331 C 188.885 127.880,190.437 126.470,190.849 126.196 C 191.409 125.825,191.626 125.524,191.709 125.000 C 191.913 123.719,192.418 121.934,193.610 118.284 C 195.379 112.869,195.989 109.083,195.695 105.352 L 195.558 103.603 194.534 102.852 L 193.510 102.100 194.405 101.919 C 194.897 101.819,195.328 101.716,195.363 101.689 C 195.494 101.589,194.352 95.579,193.679 92.825 C 192.410 87.633,190.460 83.717,187.127 79.666 L 186.112 78.433 185.659 79.192 C 183.972 82.021,181.149 79.703,182.460 76.566 L 182.757 75.854 180.129 75.040 C 173.834 73.091,166.363 72.358,164.500 73.505 C 163.499 74.122,163.458 74.120,163.311 73.450 L 163.191 72.900 161.246 72.972 C 159.080 73.053,142.100 72.643,141.000 72.484 L 140.300 72.383 140.252 76.919 M225.400 72.641 C 223.610 72.848,214.651 72.891,211.581 72.706 L 209.062 72.555 208.938 76.428 C 208.870 78.557,208.757 80.498,208.686 80.740 C 208.564 81.162,208.588 81.171,209.329 80.964 C 210.343 80.682,214.008 80.891,214.229 81.244 C 214.317 81.385,214.334 88.610,214.267 97.300 L 214.145 113.100 214.843 114.815 L 215.540 116.530 214.885 117.830 C 214.256 119.079,214.237 119.184,214.404 120.515 C 214.876 124.272,214.787 133.360,214.265 134.720 C 214.163 134.985,214.226 135.019,214.600 134.900 C 214.854 134.819,216.763 134.730,218.842 134.701 C 222.293 134.653,222.661 134.614,223.061 134.251 C 224.084 133.324,226.418 132.538,226.855 132.975 C 227.160 133.280,226.823 133.946,226.141 134.383 L 225.500 134.793 228.900 134.792 C 245.247 134.789,254.104 133.892,257.829 131.865 C 261.771 129.719,264.991 123.055,263.299 120.543 L 262.613 119.525 263.331 118.649 L 264.049 117.773 263.942 114.837 C 263.673 107.422,261.532 103.648,256.650 101.987 C 256.017 101.772,255.368 101.547,255.206 101.487 C 255.026 101.421,255.465 101.112,256.338 100.690 C 259.004 99.400,260.075 97.653,260.591 93.748 C 260.704 92.894,260.931 91.872,261.096 91.478 C 261.382 90.795,261.375 90.744,260.948 90.398 L 260.500 90.035 260.950 89.425 C 261.591 88.557,261.517 87.300,260.565 82.900 C 260.054 80.538,260.142 80.710,259.588 81.007 C 258.498 81.590,256.400 80.093,256.400 78.731 C 256.400 78.034,256.673 77.569,257.263 77.260 C 258.284 76.725,252.139 73.926,248.800 73.406 C 248.085 73.294,245.295 73.198,242.600 73.191 C 239.905 73.184,236.496 73.062,235.024 72.920 L 232.348 72.662 230.940 73.210 L 229.531 73.758 228.115 73.125 C 226.811 72.540,226.598 72.503,225.400 72.641 M220.051 76.350 C 221.401 77.860,219.121 80.424,217.036 79.739 C 215.611 79.271,215.645 77.945,217.092 77.581 C 217.591 77.455,218.000 77.256,218.000 77.139 C 218.000 76.289,219.486 75.718,220.051 76.350 M235.906 80.809 C 235.971 80.914,236.896 81.002,237.962 81.004 C 248.183 81.023,254.171 85.325,252.292 91.299 C 251.951 92.383,251.952 92.459,252.353 93.958 C 252.842 95.790,252.851 95.772,251.838 95.101 L 251.039 94.573 250.047 95.286 C 247.781 96.913,245.006 97.636,240.871 97.674 C 238.470 97.696,237.983 97.754,237.651 98.054 C 237.290 98.381,237.157 98.386,235.880 98.121 C 234.891 97.916,233.756 97.866,231.873 97.945 C 230.391 98.007,227.978 97.946,226.337 97.803 L 223.427 97.551 223.318 96.825 C 223.133 95.597,223.127 92.739,223.295 86.850 L 223.456 81.200 228.813 81.200 L 234.169 81.200 234.401 80.498 L 234.632 79.796 235.210 80.207 C 235.528 80.433,235.841 80.704,235.906 80.809 M165.500 81.200 C 171.214 81.526,173.728 82.082,176.202 83.565 C 176.916 83.993,177.978 84.456,178.562 84.594 C 179.716 84.867,180.698 85.561,180.918 86.259 C 180.994 86.501,181.446 87.134,181.922 87.665 C 184.305 90.321,185.752 95.116,186.313 102.210 C 186.439 103.805,186.486 103.942,187.001 104.238 C 188.208 104.930,188.188 106.772,186.969 107.285 L 186.335 107.551 186.308 110.826 C 186.241 118.899,180.378 125.341,171.847 126.714 C 169.612 127.073,160.963 127.130,158.200 126.804 C 157.265 126.693,156.040 126.602,155.478 126.602 L 154.456 126.600 154.334 125.450 C 154.268 124.817,154.270 118.697,154.339 111.850 L 154.466 99.400 153.748 99.400 C 153.268 99.400,152.827 99.229,152.415 98.882 C 150.934 97.636,152.246 94.760,154.295 94.760 L 155.000 94.760 154.996 93.030 C 154.994 92.079,154.856 90.535,154.688 89.600 C 154.309 87.486,154.256 83.433,154.590 82.044 L 154.840 81.000 158.470 81.003 C 160.466 81.004,163.630 81.093,165.500 81.200 M249.200 106.472 C 255.111 108.473,257.495 115.016,254.412 120.778 C 254.234 121.110,254.272 121.358,254.602 122.004 C 254.829 122.449,255.100 123.036,255.203 123.308 L 255.391 123.802 254.296 123.674 C 253.327 123.560,253.114 123.605,252.450 124.064 C 250.244 125.588,247.891 126.232,242.800 126.702 L 239.300 127.026 238.517 127.799 L 237.735 128.571 236.017 127.714 L 234.300 126.857 229.200 126.742 C 223.580 126.616,223.469 126.598,223.321 125.833 C 223.121 124.801,223.104 120.027,223.277 113.100 L 223.451 106.100 235.776 106.100 C 247.267 106.100,248.174 106.125,249.200 106.472 M152.362 128.208 C 153.153 128.944,152.886 130.320,151.633 131.968 C 151.023 132.770,150.723 132.746,148.494 131.716 C 146.343 130.723,146.335 129.950,148.469 129.385 C 148.926 129.264,149.525 128.960,149.800 128.709 C 150.895 127.711,151.667 127.560,152.362 128.208 M183.689 233.603 C 182.975 233.823,180.600 235.905,180.600 236.310 C 180.600 236.462,180.143 237.557,179.584 238.743 C 177.842 242.444,177.650 242.884,177.509 243.488 C 177.294 244.419,175.552 246.291,174.651 246.561 C 174.228 246.688,173.509 247.111,173.054 247.500 L 172.226 248.209 171.904 247.755 C 171.727 247.505,171.308 246.872,170.972 246.350 C 170.172 245.104,167.684 242.355,167.125 242.100 C 166.884 241.990,166.419 241.709,166.093 241.476 C 165.767 241.243,165.275 240.984,165.000 240.901 C 164.725 240.817,163.621 240.400,162.546 239.974 C 158.653 238.431,153.800 239.670,153.800 242.206 C 153.800 243.396,154.888 246.515,155.600 247.363 C 160.047 252.664,164.576 253.930,169.945 251.372 C 170.409 251.151,170.882 251.027,170.995 251.097 C 171.271 251.267,171.266 255.136,170.989 255.307 C 170.873 255.378,170.563 255.924,170.300 256.519 C 170.037 257.114,169.384 258.073,168.849 258.651 C 167.026 260.617,164.933 263.960,164.502 265.594 C 164.353 266.156,164.045 266.975,163.816 267.414 C 163.587 267.853,163.400 268.424,163.400 268.682 C 163.400 268.940,163.265 269.474,163.100 269.869 C 162.935 270.264,162.800 270.939,162.800 271.368 C 162.800 271.798,162.665 272.532,162.500 273.000 C 162.144 274.010,162.078 279.053,162.410 279.925 C 162.525 280.229,163.544 281.427,164.674 282.588 C 168.360 286.378,168.634 286.689,169.108 287.620 C 171.008 291.353,171.357 298.071,169.823 301.400 C 169.299 302.539,169.292 303.240,169.800 303.700 C 170.614 304.436,171.170 303.695,172.413 300.219 C 173.117 298.251,172.876 293.373,171.889 289.600 C 171.088 286.538,170.730 286.038,165.356 280.473 L 164.170 279.246 164.260 276.273 C 164.370 272.622,164.891 269.913,166.003 267.200 C 166.251 266.595,166.599 265.740,166.776 265.300 C 167.214 264.212,168.295 262.432,168.901 261.799 C 169.176 261.512,169.400 261.207,169.400 261.121 C 169.400 261.034,169.885 260.427,170.477 259.773 C 171.069 259.118,171.902 257.896,172.327 257.058 L 173.100 255.533 173.095 252.832 L 173.089 250.131 173.895 249.371 C 174.338 248.952,175.110 248.471,175.612 248.302 C 176.914 247.861,179.398 245.114,179.401 244.111 C 179.402 243.885,179.581 243.430,179.800 243.100 C 180.019 242.770,180.198 242.373,180.199 242.218 C 180.199 242.062,180.682 240.936,181.271 239.715 C 181.861 238.495,182.407 237.294,182.485 237.048 C 182.812 236.016,184.200 235.400,186.199 235.400 C 188.614 235.400,189.591 234.705,188.477 233.781 C 188.083 233.454,184.591 233.324,183.689 233.603 M162.535 242.050 C 163.727 242.518,164.904 243.103,165.151 243.350 C 165.398 243.597,165.727 243.800,165.881 243.800 C 166.323 243.800,168.780 246.462,169.607 247.838 L 170.356 249.082 169.228 249.515 C 165.732 250.854,162.997 251.031,161.700 250.000 C 161.285 249.670,160.836 249.400,160.703 249.400 C 160.571 249.400,160.291 249.207,160.081 248.971 C 159.871 248.736,159.467 248.398,159.182 248.221 C 158.094 247.546,156.654 245.525,156.217 244.058 C 155.656 242.172,155.668 242.103,156.650 241.738 C 158.683 240.981,159.987 241.050,162.535 242.050 " stroke="none" fill="#1976d2" fill-rule="evenodd"></path><path id="path8" d="" stroke="none" fill="#5555ff" fill-rule="evenodd"></path><path id="path9" d="M250.462 297.300 C 250.463 297.960,250.500 298.206,250.545 297.846 C 250.589 297.487,250.589 296.947,250.543 296.646 C 250.497 296.346,250.461 296.640,250.462 297.300 " stroke="none" fill="#aa47bb" fill-rule="evenodd"></path><path id="path10" d="M239.109 312.352 C 239.192 312.543,239.324 313.150,239.402 313.700 C 239.480 314.250,239.690 315.089,239.868 315.564 C 240.172 316.376,240.655 319.412,240.504 319.563 C 240.466 319.601,239.880 319.490,239.201 319.316 C 235.981 318.491,234.358 319.308,232.708 322.584 C 231.122 325.733,232.034 328.000,234.885 328.000 C 235.271 328.000,235.902 328.151,236.288 328.335 C 237.151 328.746,237.880 328.493,238.249 327.653 C 238.382 327.349,238.623 327.018,238.785 326.918 C 238.946 326.818,239.479 326.368,239.970 325.918 L 240.862 325.100 240.725 328.200 C 240.650 329.905,240.506 331.750,240.406 332.300 C 240.306 332.850,240.218 334.429,240.212 335.810 C 240.204 337.538,240.122 338.398,239.950 338.569 C 239.798 338.721,239.650 339.693,239.573 341.059 C 239.373 344.567,239.028 347.048,238.162 351.200 C 238.036 351.805,237.734 352.705,237.492 353.200 C 237.250 353.695,236.988 354.325,236.910 354.600 C 236.832 354.875,236.454 355.749,236.070 356.543 C 235.340 358.053,235.261 358.910,235.819 359.259 C 236.356 359.596,237.179 359.260,237.321 358.647 C 237.390 358.346,237.649 357.740,237.896 357.300 C 238.143 356.860,238.504 356.005,238.697 355.400 C 238.891 354.795,239.204 354.030,239.393 353.700 C 239.583 353.370,239.840 352.605,239.966 352.000 C 240.542 349.229,240.822 347.586,241.017 345.840 C 241.306 343.250,241.419 343.000,242.308 343.000 C 244.435 343.000,245.784 341.556,245.952 339.100 C 246.073 337.329,245.704 337.000,243.592 337.000 L 242.000 337.000 242.000 335.928 C 242.000 335.338,242.140 333.639,242.312 332.153 C 242.920 326.880,242.526 316.947,241.617 314.643 C 241.388 314.061,241.200 313.364,241.200 313.093 C 241.200 312.731,241.092 312.600,240.794 312.600 C 240.570 312.600,240.066 312.466,239.673 312.302 C 239.007 312.023,238.969 312.027,239.109 312.352 " stroke="none" fill="#43a047" fill-rule="evenodd"></path><path id="path11" d="M190.800 10.129 C 190.415 10.165,188.840 10.290,187.300 10.408 C 135.184 14.375,87.743 46.915,64.989 94.300 C 55.545 113.967,50.969 133.027,50.090 156.350 L 49.960 159.800 84.280 159.800 C 116.831 159.800,118.600 159.782,118.604 159.450 C 119.498 80.727,150.051 18.465,191.700 10.492 C 194.089 10.035,193.662 9.863,190.800 10.129 M208.300 10.477 C 247.364 18.204,277.343 74.173,280.998 146.200 C 281.107 148.345,281.197 151.270,281.199 152.700 C 281.201 154.130,281.260 156.313,281.331 157.550 L 281.461 159.800 315.731 159.800 L 350.000 159.800 349.997 159.050 C 349.716 79.866,286.731 13.662,208.300 10.111 L 205.900 10.002 208.300 10.477 M144.527 216.893 C 143.542 217.244,142.651 218.082,142.179 219.100 C 141.730 220.070,141.578 366.891,142.024 368.499 C 142.314 369.543,143.657 370.886,144.701 371.176 C 145.838 371.492,254.562 371.492,255.699 371.176 C 256.743 370.886,258.086 369.543,258.376 368.499 C 258.621 367.618,258.712 220.809,258.468 219.591 C 258.284 218.669,256.715 217.099,255.700 216.821 C 254.383 216.461,145.542 216.531,144.527 216.893 M254.800 294.000 L 254.800 367.600 200.200 367.600 L 145.600 367.600 145.600 294.000 L 145.600 220.400 200.200 220.400 L 254.800 220.400 254.800 294.000 M186.950 272.945 C 187.308 272.989,187.893 272.989,188.250 272.945 C 188.608 272.900,188.315 272.864,187.600 272.864 C 186.885 272.864,186.593 272.900,186.950 272.945 M197.666 281.300 C 197.667 282.070,197.703 282.360,197.746 281.946 C 197.789 281.531,197.789 280.901,197.744 280.546 C 197.700 280.190,197.665 280.530,197.666 281.300 M212.862 303.300 C 212.863 303.960,212.900 304.206,212.945 303.846 C 212.989 303.487,212.989 302.947,212.943 302.646 C 212.897 302.346,212.861 302.640,212.862 303.300 M208.469 316.500 C 208.469 317.380,208.504 317.715,208.547 317.245 C 208.589 316.774,208.588 316.054,208.545 315.645 C 208.502 315.235,208.468 315.620,208.469 316.500 M222.450 333.300 C 222.453 333.740,222.494 333.896,222.541 333.648 C 222.589 333.399,222.587 333.039,222.537 332.848 C 222.487 332.656,222.448 332.860,222.450 333.300 M214.675 345.100 C 214.675 346.310,214.708 346.779,214.748 346.143 C 214.788 345.506,214.787 344.516,214.747 343.943 C 214.707 343.369,214.674 343.890,214.675 345.100 " stroke="none" fill="#c75c5c" fill-rule="evenodd"></path><path id="path12" d="M147.050 72.738 C 147.243 72.788,147.558 72.788,147.750 72.738 C 147.942 72.688,147.785 72.646,147.400 72.646 C 147.015 72.646,146.858 72.688,147.050 72.738 M153.950 72.941 C 154.197 72.989,154.603 72.989,154.850 72.941 C 155.097 72.893,154.895 72.854,154.400 72.854 C 153.905 72.854,153.703 72.893,153.950 72.941 M217.746 72.944 C 218.101 72.989,218.731 72.989,219.146 72.946 C 219.560 72.903,219.270 72.867,218.500 72.866 C 217.730 72.865,217.390 72.900,217.746 72.944 M144.850 81.338 C 145.042 81.388,145.358 81.388,145.550 81.338 C 145.743 81.288,145.585 81.246,145.200 81.246 C 144.815 81.246,144.657 81.288,144.850 81.338 M181.200 87.063 C 181.200 87.097,181.493 87.390,181.850 87.713 L 182.500 88.300 181.913 87.650 C 181.365 87.044,181.200 86.908,181.200 87.063 M214.275 89.300 C 214.275 90.510,214.308 90.979,214.348 90.343 C 214.388 89.706,214.387 88.716,214.347 88.143 C 214.307 87.569,214.274 88.090,214.275 89.300 M223.246 88.000 C 223.246 88.385,223.288 88.543,223.338 88.350 C 223.388 88.158,223.388 87.843,223.338 87.650 C 223.288 87.458,223.246 87.615,223.246 88.000 M145.646 90.400 C 145.646 90.785,145.688 90.942,145.738 90.750 C 145.788 90.558,145.788 90.243,145.738 90.050 C 145.688 89.858,145.646 90.015,145.646 90.400 M240.250 97.743 C 240.553 97.789,241.048 97.789,241.350 97.743 C 241.653 97.697,241.405 97.660,240.800 97.660 C 240.195 97.660,239.947 97.697,240.250 97.743 M232.053 106.144 C 232.357 106.189,232.807 106.188,233.053 106.141 C 233.299 106.093,233.050 106.056,232.500 106.057 C 231.950 106.059,231.749 106.098,232.053 106.144 M145.646 110.600 C 145.646 110.985,145.688 111.142,145.738 110.950 C 145.788 110.758,145.788 110.442,145.738 110.250 C 145.688 110.058,145.646 110.215,145.646 110.600 M223.250 114.100 C 223.253 114.540,223.294 114.696,223.341 114.448 C 223.389 114.199,223.387 113.839,223.337 113.648 C 223.287 113.456,223.248 113.660,223.250 114.100 M255.650 115.100 C 255.653 115.540,255.694 115.696,255.741 115.448 C 255.789 115.199,255.787 114.839,255.737 114.648 C 255.687 114.456,255.648 114.660,255.650 115.100 M264.069 116.300 C 264.069 117.180,264.104 117.515,264.147 117.045 C 264.189 116.574,264.188 115.854,264.145 115.445 C 264.102 115.035,264.068 115.420,264.069 116.300 M154.246 117.000 C 154.246 117.385,154.288 117.543,154.338 117.350 C 154.388 117.158,154.388 116.843,154.338 116.650 C 154.288 116.458,154.246 116.615,154.246 117.000 M145.446 117.200 C 145.446 117.585,145.488 117.743,145.538 117.550 C 145.588 117.358,145.588 117.043,145.538 116.850 C 145.488 116.658,145.446 116.815,145.446 117.200 M223.054 121.000 C 223.054 121.495,223.093 121.697,223.141 121.450 C 223.189 121.203,223.189 120.797,223.141 120.550 C 223.093 120.303,223.054 120.505,223.054 121.000 M154.857 134.548 C 155.494 134.588,156.484 134.587,157.057 134.547 C 157.631 134.507,157.110 134.474,155.900 134.475 C 154.690 134.475,154.221 134.508,154.857 134.548 M235.050 134.743 C 235.353 134.789,235.847 134.789,236.150 134.743 C 236.453 134.697,236.205 134.660,235.600 134.660 C 234.995 134.660,234.748 134.697,235.050 134.743 M77.703 160.391 C 78.031 160.718,80.928 163.396,84.140 166.342 C 87.353 169.289,94.103 175.482,99.140 180.105 C 117.479 196.933,140.893 218.272,140.601 217.891 C 140.437 217.676,138.545 215.610,136.398 213.300 C 131.339 207.857,121.898 197.710,112.396 187.499 C 100.526 174.746,98.494 172.546,98.433 172.379 C 98.393 172.270,102.183 172.217,107.827 172.248 L 117.289 172.300 120.005 177.200 C 121.499 179.895,124.239 184.845,126.094 188.200 C 127.949 191.555,130.564 196.280,131.905 198.700 C 133.246 201.120,136.032 206.160,138.096 209.900 C 143.074 218.919,142.554 218.110,143.074 217.637 C 143.992 216.803,144.436 216.702,147.650 216.600 L 150.800 216.500 138.283 194.400 C 131.399 182.245,124.176 169.510,122.232 166.100 L 118.697 159.900 97.902 159.849 L 77.106 159.798 77.703 160.391 M142.541 162.850 C 143.486 164.528,145.079 167.340,146.080 169.100 L 147.900 172.300 200.050 172.250 C 240.197 172.211,252.200 172.254,252.200 172.437 C 252.200 172.567,253.820 169.818,255.800 166.328 C 257.780 162.837,259.400 159.940,259.400 159.891 C 259.400 159.841,232.720 159.800,200.111 159.800 L 140.823 159.800 142.541 162.850 M281.405 160.250 C 281.303 160.498,279.708 163.330,277.860 166.544 C 276.012 169.758,268.851 182.313,261.947 194.444 L 249.395 216.500 252.647 216.600 C 256.063 216.705,256.406 216.788,257.448 217.760 C 257.749 218.041,258.027 218.232,258.065 218.185 C 258.103 218.138,258.971 216.570,259.994 214.700 C 261.746 211.498,263.111 209.024,273.401 190.400 C 275.680 186.275,278.834 180.560,280.410 177.700 C 281.987 174.840,283.372 172.434,283.488 172.353 C 283.605 172.272,289.409 172.205,296.387 172.203 L 309.075 172.200 308.487 172.849 C 308.164 173.207,308.620 172.821,309.500 171.992 C 310.380 171.163,313.688 168.120,316.850 165.231 C 320.013 162.341,322.600 159.937,322.600 159.889 C 322.600 159.840,313.373 159.800,302.095 159.800 L 281.590 159.800 281.405 160.250 M50.800 160.700 C 51.173 161.085,51.523 161.400,51.578 161.400 C 51.633 161.400,51.373 161.085,51.000 160.700 C 50.627 160.315,50.277 160.000,50.222 160.000 C 50.167 160.000,50.427 160.315,50.800 160.700 M349.417 160.876 L 348.934 161.500 349.507 160.956 C 349.821 160.657,350.039 160.376,349.989 160.332 C 349.940 160.289,349.683 160.533,349.417 160.876 M52.600 162.274 C 52.600 162.317,72.648 182.141,97.150 206.326 L 141.700 250.300 141.756 247.309 C 141.786 245.664,141.771 244.213,141.722 244.084 C 141.673 243.956,125.402 228.963,105.566 210.766 C 55.705 165.026,52.600 162.184,52.600 162.274 M347.287 162.850 L 346.700 163.500 347.350 162.913 C 347.956 162.365,348.092 162.200,347.937 162.200 C 347.903 162.200,347.610 162.493,347.287 162.850 M344.989 164.950 L 344.300 165.700 345.050 165.011 C 345.748 164.369,345.892 164.200,345.739 164.200 C 345.706 164.200,345.368 164.538,344.989 164.950 M342.687 167.050 L 342.100 167.700 342.750 167.113 C 343.356 166.565,343.492 166.400,343.337 166.400 C 343.303 166.400,343.010 166.692,342.687 167.050 M340.389 169.150 L 339.700 169.900 340.450 169.211 C 341.148 168.569,341.292 168.400,341.139 168.400 C 341.106 168.400,340.768 168.738,340.389 169.150 M338.087 171.250 L 337.500 171.900 338.150 171.313 C 338.756 170.765,338.892 170.600,338.737 170.600 C 338.703 170.600,338.410 170.893,338.087 171.250 M335.789 173.350 L 335.100 174.100 335.850 173.411 C 336.548 172.769,336.692 172.600,336.539 172.600 C 336.506 172.600,336.168 172.938,335.789 173.350 M306.087 175.050 L 305.500 175.700 306.150 175.113 C 306.756 174.565,306.892 174.400,306.737 174.400 C 306.703 174.400,306.410 174.692,306.087 175.050 M296.300 209.401 L 258.700 243.766 258.645 246.733 L 258.590 249.700 260.545 247.789 C 265.400 243.043,334.063 174.964,333.941 175.018 C 333.918 175.028,316.980 190.500,296.300 209.401 M303.789 177.150 L 303.100 177.900 303.850 177.211 C 304.548 176.569,304.692 176.400,304.539 176.400 C 304.506 176.400,304.168 176.738,303.789 177.150 M301.389 179.350 L 300.700 180.100 301.450 179.411 C 302.148 178.769,302.292 178.600,302.139 178.600 C 302.106 178.600,301.768 178.938,301.389 179.350 M298.989 181.550 L 298.300 182.300 299.050 181.611 C 299.748 180.969,299.892 180.800,299.739 180.800 C 299.706 180.800,299.368 181.138,298.989 181.550 M296.589 183.750 L 295.900 184.500 296.650 183.811 C 297.348 183.169,297.492 183.000,297.339 183.000 C 297.306 183.000,296.968 183.338,296.589 183.750 M294.189 185.950 L 293.500 186.700 294.250 186.011 C 294.948 185.369,295.092 185.200,294.939 185.200 C 294.906 185.200,294.568 185.538,294.189 185.950 M291.789 188.150 L 291.100 188.900 291.850 188.211 C 292.548 187.569,292.692 187.400,292.539 187.400 C 292.506 187.400,292.168 187.738,291.789 188.150 M289.487 190.250 L 288.900 190.900 289.550 190.313 C 290.156 189.765,290.292 189.600,290.137 189.600 C 290.103 189.600,289.810 189.893,289.487 190.250 M287.189 192.350 L 286.500 193.100 287.250 192.411 C 287.948 191.769,288.092 191.600,287.939 191.600 C 287.906 191.600,287.568 191.938,287.189 192.350 M284.687 194.650 L 284.100 195.300 284.750 194.713 C 285.356 194.165,285.492 194.000,285.337 194.000 C 285.303 194.000,285.010 194.293,284.687 194.650 M282.389 196.750 L 281.700 197.500 282.450 196.811 C 283.148 196.169,283.292 196.000,283.139 196.000 C 283.106 196.000,282.768 196.338,282.389 196.750 M279.989 198.950 L 279.300 199.700 280.050 199.011 C 280.748 198.369,280.892 198.200,280.739 198.200 C 280.706 198.200,280.368 198.538,279.989 198.950 M277.589 201.150 L 276.900 201.900 277.650 201.211 C 278.348 200.569,278.492 200.400,278.339 200.400 C 278.306 200.400,277.968 200.738,277.589 201.150 M275.189 203.350 L 274.500 204.100 275.250 203.411 C 275.948 202.769,276.092 202.600,275.939 202.600 C 275.906 202.600,275.568 202.938,275.189 203.350 M272.789 205.550 L 272.100 206.300 272.850 205.611 C 273.548 204.969,273.692 204.800,273.539 204.800 C 273.506 204.800,273.168 205.138,272.789 205.550 M270.389 207.750 L 269.700 208.500 270.450 207.811 C 271.148 207.169,271.292 207.000,271.139 207.000 C 271.106 207.000,270.768 207.338,270.389 207.750 M267.989 209.950 L 267.300 210.700 268.050 210.011 C 268.463 209.632,268.800 209.294,268.800 209.261 C 268.800 209.108,268.631 209.252,267.989 209.950 M265.789 211.950 L 265.100 212.700 265.850 212.011 C 266.548 211.369,266.692 211.200,266.539 211.200 C 266.506 211.200,266.168 211.538,265.789 211.950 M263.389 214.150 L 262.700 214.900 263.450 214.211 C 263.863 213.832,264.200 213.494,264.200 213.461 C 264.200 213.308,264.031 213.452,263.389 214.150 M260.887 216.450 L 260.300 217.100 260.950 216.513 C 261.556 215.965,261.692 215.800,261.537 215.800 C 261.503 215.800,261.210 216.093,260.887 216.450 M258.687 218.450 L 258.100 219.100 258.750 218.513 C 259.356 217.965,259.492 217.800,259.337 217.800 C 259.303 217.800,259.010 218.093,258.687 218.450 M188.528 233.800 C 188.654 233.965,188.801 234.280,188.855 234.500 C 188.949 234.880,188.955 234.879,188.977 234.474 C 188.990 234.240,188.843 233.925,188.650 233.774 C 188.346 233.536,188.330 233.539,188.528 233.800 M181.287 235.250 L 180.700 235.900 181.350 235.313 C 181.956 234.765,182.092 234.600,181.937 234.600 C 181.903 234.600,181.610 234.893,181.287 235.250 M158.000 249.863 C 158.000 249.897,158.293 250.190,158.650 250.513 L 159.300 251.100 158.713 250.450 C 158.165 249.844,158.000 249.708,158.000 249.863 M167.500 282.800 C 167.930 283.240,168.326 283.600,168.381 283.600 C 168.436 283.600,168.130 283.240,167.700 282.800 C 167.270 282.360,166.874 282.000,166.819 282.000 C 166.764 282.000,167.070 282.360,167.500 282.800 M165.992 284.050 C 166.820 284.933,167.000 285.092,167.000 284.942 C 167.000 284.910,166.572 284.482,166.050 283.992 L 165.100 283.100 165.992 284.050 " stroke="none" fill="#6695b0" fill-rule="evenodd"></path><path id="path13" d="M194.000 9.960 C 194.000 10.048,194.338 10.088,194.750 10.048 C 196.036 9.926,196.141 9.847,195.050 9.823 C 194.472 9.810,194.000 9.872,194.000 9.960 M204.200 9.912 C 204.957 10.076,206.000 10.104,206.000 9.960 C 206.000 9.872,205.528 9.810,204.950 9.823 C 204.373 9.836,204.035 9.876,204.200 9.912 M190.352 10.141 C 190.601 10.189,190.961 10.187,191.152 10.137 C 191.344 10.087,191.140 10.048,190.700 10.050 C 190.260 10.053,190.104 10.094,190.352 10.141 M208.952 10.141 C 209.201 10.189,209.561 10.187,209.752 10.137 C 209.944 10.087,209.740 10.048,209.300 10.050 C 208.860 10.053,208.704 10.094,208.952 10.141 M239.400 28.463 C 239.400 28.497,239.693 28.790,240.050 29.113 L 240.700 29.700 240.113 29.050 C 239.565 28.444,239.400 28.308,239.400 28.463 M97.287 50.250 L 96.700 50.900 97.350 50.313 C 97.956 49.765,98.092 49.600,97.937 49.600 C 97.903 49.600,97.610 49.893,97.287 50.250 M302.600 50.300 C 302.973 50.685,303.323 51.000,303.378 51.000 C 303.433 51.000,303.173 50.685,302.800 50.300 C 302.427 49.915,302.077 49.600,302.022 49.600 C 301.967 49.600,302.227 49.915,302.600 50.300 M90.287 57.250 L 89.700 57.900 90.350 57.313 C 90.956 56.765,91.092 56.600,90.937 56.600 C 90.903 56.600,90.610 56.892,90.287 57.250 M309.000 56.663 C 309.000 56.697,309.293 56.990,309.650 57.313 L 310.300 57.900 309.713 57.250 C 309.165 56.644,309.000 56.508,309.000 56.663 M50.250 150.700 C 50.253 151.140,50.294 151.296,50.341 151.048 C 50.389 150.799,50.387 150.439,50.337 150.248 C 50.287 150.056,50.248 150.260,50.250 150.700 M349.650 150.700 C 349.653 151.140,349.694 151.296,349.741 151.048 C 349.789 150.799,349.787 150.439,349.737 150.248 C 349.687 150.056,349.648 150.260,349.650 150.700 M50.066 155.300 C 50.067 156.070,50.103 156.360,50.146 155.946 C 50.189 155.531,50.189 154.901,50.144 154.546 C 50.100 154.190,50.065 154.530,50.066 155.300 M349.866 155.300 C 349.867 156.070,349.903 156.360,349.946 155.946 C 349.989 155.531,349.989 154.901,349.944 154.546 C 349.900 154.190,349.865 154.530,349.866 155.300 M118.670 158.200 C 118.670 159.135,118.704 159.518,118.746 159.050 C 118.789 158.583,118.789 157.817,118.746 157.350 C 118.704 156.883,118.670 157.265,118.670 158.200 M281.269 158.300 C 281.269 159.180,281.304 159.515,281.347 159.045 C 281.389 158.574,281.388 157.854,281.345 157.445 C 281.302 157.035,281.268 157.420,281.269 158.300 M256.800 217.263 C 256.800 217.297,257.093 217.590,257.450 217.913 L 258.100 218.500 257.513 217.850 C 256.965 217.244,256.800 217.108,256.800 217.263 M233.466 291.100 C 233.467 291.870,233.503 292.160,233.546 291.746 C 233.589 291.331,233.589 290.701,233.544 290.346 C 233.500 289.990,233.465 290.330,233.466 291.100 M246.053 292.744 C 246.357 292.789,246.807 292.788,247.053 292.741 C 247.299 292.693,247.050 292.656,246.500 292.657 C 245.950 292.659,245.749 292.698,246.053 292.744 M227.546 293.144 C 227.901 293.189,228.531 293.189,228.946 293.146 C 229.360 293.103,229.070 293.067,228.300 293.066 C 227.530 293.065,227.190 293.100,227.546 293.144 M242.027 294.338 C 241.996 294.844,242.304 295.117,242.517 294.772 C 242.604 294.632,242.575 294.592,242.445 294.672 C 242.320 294.749,242.192 294.614,242.142 294.353 C 242.055 293.903,242.054 293.903,242.027 294.338 M224.264 297.400 C 224.264 298.115,224.300 298.407,224.345 298.050 C 224.389 297.693,224.389 297.108,224.345 296.750 C 224.300 296.393,224.264 296.685,224.264 297.400 M227.650 301.543 C 227.953 301.589,228.447 301.589,228.750 301.543 C 229.053 301.497,228.805 301.460,228.200 301.460 C 227.595 301.460,227.347 301.497,227.650 301.543 M228.471 308.300 C 228.470 309.290,228.504 309.720,228.546 309.256 C 228.588 308.792,228.589 307.982,228.547 307.456 C 228.506 306.930,228.472 307.310,228.471 308.300 M246.460 308.800 C 246.460 309.405,246.497 309.653,246.543 309.350 C 246.589 309.048,246.589 308.553,246.543 308.250 C 246.497 307.947,246.460 308.195,246.460 308.800 M242.350 312.741 C 242.597 312.789,243.003 312.789,243.250 312.741 C 243.498 312.693,243.295 312.654,242.800 312.654 C 242.305 312.654,242.103 312.693,242.350 312.741 " stroke="none" fill="#a77f8c" fill-rule="evenodd"></path><path id="path14" d="M185.749 271.345 C 184.867 272.321,185.401 272.722,187.753 272.850 C 189.938 272.968,190.484 273.262,192.595 275.455 C 195.928 278.916,196.449 280.563,195.173 283.599 C 194.419 285.395,194.177 287.418,194.652 287.954 C 194.822 288.144,195.096 288.629,195.262 289.031 C 195.428 289.433,195.752 289.821,195.982 289.894 C 196.212 289.967,196.490 290.194,196.599 290.398 C 196.801 290.776,199.082 292.600,199.352 292.600 C 199.434 292.600,200.085 292.960,200.800 293.400 C 201.567 293.872,202.349 294.200,202.708 294.200 C 203.042 294.200,203.668 294.380,204.100 294.600 C 204.532 294.820,205.063 295.000,205.282 295.000 C 205.500 295.000,205.998 295.212,206.389 295.471 C 206.780 295.730,207.550 296.196,208.100 296.506 C 212.795 299.154,214.174 303.222,211.465 306.434 C 209.989 308.185,207.800 311.284,207.800 311.623 C 207.800 311.733,207.530 312.367,207.200 313.032 C 206.315 314.816,206.293 318.634,207.160 319.942 C 207.917 321.083,211.709 324.197,212.346 324.201 C 212.431 324.201,213.220 324.570,214.100 325.020 C 214.980 325.470,216.389 326.190,217.231 326.619 C 218.074 327.049,218.919 327.400,219.110 327.400 C 219.696 327.400,222.200 330.167,222.200 330.815 C 222.200 331.120,222.305 331.824,222.433 332.380 C 222.692 333.502,222.439 334.791,221.829 335.460 C 220.821 336.566,219.783 337.455,218.819 338.040 C 215.760 339.897,214.800 341.621,214.800 345.258 C 214.800 349.173,216.508 351.143,221.274 352.726 C 222.360 353.087,223.402 353.521,223.590 353.691 C 224.509 354.523,225.678 353.717,225.119 352.637 C 224.691 351.808,224.507 351.702,222.182 350.941 C 218.041 349.584,216.600 348.091,216.600 345.157 C 216.600 342.524,217.329 341.355,220.113 339.525 C 224.138 336.879,224.839 335.233,224.043 330.282 C 223.792 328.718,221.004 325.598,219.861 325.601 C 218.122 325.606,209.738 320.392,208.840 318.746 C 207.559 316.401,209.440 311.287,212.865 307.800 C 216.603 303.994,214.868 298.019,209.100 294.838 C 208.440 294.474,207.594 293.957,207.220 293.688 C 206.847 293.420,206.348 293.200,206.113 293.200 C 205.877 293.200,205.332 293.020,204.900 292.800 C 204.468 292.580,203.837 292.400,203.497 292.400 C 202.106 292.400,198.014 289.427,196.632 287.411 C 196.096 286.631,196.166 286.157,197.140 283.960 C 198.192 281.589,197.706 278.557,195.898 276.200 C 194.070 273.816,193.142 272.916,191.305 271.740 C 190.006 270.908,186.378 270.651,185.749 271.345 " stroke="none" fill="#f44336" fill-rule="evenodd"></path><path id="path15" d="M161.292 27.650 L 160.300 28.700 161.350 27.708 C 162.326 26.785,162.492 26.600,162.342 26.600 C 162.311 26.600,161.838 27.073,161.292 27.650 M238.392 27.450 C 239.220 28.333,239.400 28.492,239.400 28.342 C 239.400 28.310,238.972 27.882,238.450 27.392 L 237.500 26.500 238.392 27.450 M237.050 306.138 C 237.243 306.188,237.558 306.188,237.750 306.138 C 237.943 306.088,237.785 306.046,237.400 306.046 C 237.015 306.046,236.857 306.088,237.050 306.138 " stroke="none" fill="#d08f71" fill-rule="evenodd"></path><path id="path16" d="M194.317 295.304 C 193.557 295.797,192.804 296.200,192.645 296.200 C 192.319 296.200,191.546 296.786,189.736 298.407 C 189.056 299.016,188.095 299.863,187.600 300.291 C 185.536 302.072,183.673 304.996,182.572 308.181 C 181.502 311.278,181.162 312.359,180.966 313.287 C 180.848 313.844,180.627 314.543,180.476 314.840 C 180.324 315.137,180.200 315.823,180.200 316.365 C 180.200 316.906,180.029 317.743,179.819 318.225 C 179.610 318.706,179.334 319.640,179.207 320.300 C 178.978 321.487,178.161 323.712,177.659 324.516 C 177.516 324.744,177.304 325.464,177.187 326.116 C 177.071 326.767,176.630 328.020,176.207 328.900 C 175.785 329.780,175.296 330.815,175.121 331.200 C 174.060 333.534,171.852 335.585,169.825 336.117 C 169.096 336.309,168.257 336.586,167.960 336.733 C 166.136 337.635,161.747 336.677,161.161 335.248 C 160.365 333.308,161.840 328.487,163.708 326.926 C 164.770 326.038,164.939 324.904,164.058 324.581 C 163.008 324.196,159.811 327.643,159.797 329.175 C 159.795 329.354,159.664 329.860,159.506 330.300 C 159.347 330.740,159.214 331.551,159.209 332.101 C 159.204 332.652,159.110 333.416,159.000 333.800 C 158.641 335.053,159.777 337.580,160.850 337.913 C 161.097 337.990,161.570 338.243,161.900 338.476 C 162.740 339.070,167.093 339.222,168.311 338.700 C 168.745 338.514,169.719 338.187,170.475 337.973 C 172.959 337.271,175.543 334.899,176.871 332.100 C 177.288 331.220,177.881 330.005,178.188 329.400 C 178.495 328.795,178.861 327.715,179.003 327.000 C 179.144 326.285,179.326 325.610,179.407 325.500 C 179.797 324.971,180.838 322.122,181.099 320.868 C 181.261 320.093,181.573 319.064,181.792 318.580 C 182.012 318.096,182.193 317.314,182.196 316.842 C 182.198 316.370,182.384 315.380,182.608 314.642 C 183.579 311.446,184.877 307.669,185.128 307.305 C 185.277 307.089,185.400 306.770,185.400 306.599 C 185.400 305.694,187.378 303.155,189.800 300.949 C 191.959 298.984,192.744 298.392,193.943 297.826 C 196.559 296.593,197.716 295.197,196.613 294.607 C 196.008 294.283,195.792 294.349,194.317 295.304 " stroke="none" fill="#ff6f00" fill-rule="evenodd"></path><path id="path17" d="M188.400 0.223 C 72.306 7.304,-12.859 109.909,1.516 225.377 C 12.914 316.937,87.149 389.552,179.000 398.988 C 186.969 399.807,189.109 399.900,200.000 399.900 C 274.972 399.900,341.971 359.455,377.252 292.900 C 399.261 251.382,405.705 201.169,394.971 154.827 C 373.015 60.030,285.214 -5.683,188.400 0.223 M213.100 10.282 C 270.667 15.684,318.725 51.561,339.709 104.800 C 346.208 121.289,350.112 141.308,349.988 157.510 L 349.965 160.519 342.433 167.361 C 336.263 172.965,327.998 181.035,296.761 211.952 L 258.623 249.700 258.611 309.058 C 258.599 375.093,258.720 369.099,257.369 370.327 C 256.092 371.488,260.773 371.400,200.200 371.400 C 139.627 371.400,144.308 371.488,143.031 370.327 C 141.680 369.099,141.802 375.057,141.784 309.358 L 141.769 250.300 99.297 208.400 C 75.937 185.355,55.276 164.990,53.382 163.145 L 49.938 159.790 50.064 155.045 C 52.087 78.788,112.331 15.665,188.300 10.204 C 189.950 10.086,191.705 9.956,192.200 9.917 C 194.686 9.719,209.940 9.986,213.100 10.282 M148.352 72.741 C 148.601 72.789,148.961 72.787,149.152 72.737 C 149.344 72.687,149.140 72.648,148.700 72.650 C 148.260 72.653,148.104 72.694,148.352 72.741 M155.552 72.941 C 155.801 72.989,156.161 72.987,156.352 72.937 C 156.544 72.887,156.340 72.848,155.900 72.850 C 155.460 72.853,155.304 72.894,155.552 72.941 M140.266 75.300 C 140.267 76.070,140.303 76.360,140.346 75.946 C 140.389 75.531,140.389 74.901,140.344 74.546 C 140.300 74.190,140.265 74.530,140.266 75.300 M226.050 81.350 C 227.563 81.383,230.038 81.383,231.550 81.350 C 233.063 81.316,231.825 81.288,228.800 81.288 C 225.775 81.288,224.538 81.316,226.050 81.350 M214.278 84.600 C 214.278 86.085,214.310 86.692,214.348 85.950 C 214.387 85.208,214.387 83.993,214.348 83.250 C 214.310 82.508,214.278 83.115,214.278 84.600 M145.660 92.000 C 145.660 92.605,145.697 92.853,145.743 92.550 C 145.789 92.248,145.789 91.752,145.743 91.450 C 145.697 91.148,145.660 91.395,145.660 92.000 M145.657 95.500 C 145.659 96.050,145.698 96.251,145.744 95.947 C 145.789 95.643,145.788 95.193,145.741 94.947 C 145.693 94.701,145.656 94.950,145.657 95.500 M214.084 107.100 C 214.084 109.300,214.113 110.227,214.149 109.161 C 214.185 108.094,214.185 106.294,214.149 105.161 C 214.114 104.027,214.084 104.900,214.084 107.100 M236.563 106.150 C 238.357 106.183,241.237 106.183,242.963 106.150 C 244.688 106.116,243.220 106.089,239.700 106.089 C 236.180 106.089,234.768 106.117,236.563 106.150 M145.646 109.400 C 145.646 109.785,145.688 109.942,145.738 109.750 C 145.788 109.558,145.788 109.243,145.738 109.050 C 145.688 108.858,145.646 109.015,145.646 109.400 M145.446 116.000 C 145.446 116.385,145.488 116.543,145.538 116.350 C 145.588 116.158,145.588 115.843,145.538 115.650 C 145.488 115.458,145.446 115.615,145.446 116.000 M154.250 118.300 C 154.253 118.740,154.294 118.896,154.341 118.648 C 154.389 118.399,154.387 118.039,154.337 117.848 C 154.287 117.656,154.248 117.860,154.250 118.300 M180.687 122.650 L 180.100 123.300 180.750 122.713 C 181.108 122.390,181.400 122.097,181.400 122.063 C 181.400 121.908,181.235 122.044,180.687 122.650 M154.246 123.800 C 154.246 124.185,154.288 124.343,154.338 124.150 C 154.388 123.958,154.388 123.642,154.338 123.450 C 154.288 123.258,154.246 123.415,154.246 123.800 M214.650 125.900 C 214.653 126.340,214.694 126.496,214.741 126.248 C 214.789 125.999,214.787 125.639,214.737 125.448 C 214.687 125.256,214.648 125.460,214.650 125.900 M214.657 127.900 C 214.659 128.450,214.698 128.651,214.744 128.347 C 214.789 128.043,214.788 127.593,214.741 127.347 C 214.693 127.101,214.656 127.350,214.657 127.900 M144.654 130.200 C 144.654 130.695,144.693 130.898,144.741 130.650 C 144.789 130.403,144.789 129.998,144.741 129.750 C 144.693 129.503,144.654 129.705,144.654 130.200 M185.794 130.950 L 184.500 132.300 185.850 131.006 C 187.104 129.804,187.291 129.600,187.144 129.600 C 187.114 129.600,186.506 130.208,185.794 130.950 M259.887 130.250 L 259.300 130.900 259.950 130.313 C 260.556 129.765,260.692 129.600,260.537 129.600 C 260.503 129.600,260.210 129.893,259.887 130.250 M146.355 134.747 C 146.826 134.789,147.546 134.788,147.955 134.745 C 148.365 134.702,147.980 134.668,147.100 134.669 C 146.220 134.669,145.885 134.704,146.355 134.747 M219.053 134.744 C 219.357 134.789,219.807 134.788,220.053 134.741 C 220.299 134.693,220.050 134.656,219.500 134.657 C 218.950 134.659,218.749 134.698,219.053 134.744 M236.950 134.741 C 237.197 134.789,237.603 134.789,237.850 134.741 C 238.097 134.693,237.895 134.654,237.400 134.654 C 236.905 134.654,236.703 134.693,236.950 134.741 M98.433 172.379 C 98.494 172.546,100.526 174.746,112.396 187.499 C 114.648 189.920,118.250 193.790,120.399 196.100 C 122.548 198.410,126.107 202.235,128.308 204.600 C 130.509 206.965,134.187 210.925,136.483 213.400 C 138.779 215.875,140.951 218.205,141.309 218.577 L 141.961 219.255 142.282 218.635 L 142.603 218.015 140.130 213.557 C 138.770 211.106,135.517 205.230,132.900 200.500 C 125.764 187.600,122.998 182.603,120.004 177.200 L 117.289 172.300 107.827 172.248 C 102.183 172.217,98.393 172.270,98.433 172.379 M148.000 172.322 C 148.000 172.389,153.601 182.379,160.446 194.522 L 172.891 216.600 200.096 216.593 L 227.300 216.585 239.700 194.679 C 246.520 182.631,252.129 172.644,252.165 172.487 C 252.221 172.238,245.245 172.200,200.115 172.200 C 171.452 172.200,148.000 172.255,148.000 172.322 M283.488 172.353 C 283.372 172.434,281.987 174.840,280.410 177.700 C 277.721 182.579,274.434 188.531,265.554 204.600 C 258.448 217.459,257.939 218.419,258.131 218.611 C 258.246 218.726,259.914 217.334,262.516 214.949 C 264.825 212.832,275.711 202.867,286.707 192.805 C 297.703 182.742,307.240 173.991,307.900 173.358 L 309.100 172.208 296.400 172.207 C 289.415 172.206,283.605 172.272,283.488 172.353 M185.250 235.547 C 185.773 235.588,186.628 235.588,187.150 235.547 C 187.673 235.506,187.245 235.472,186.200 235.472 C 185.155 235.472,184.728 235.506,185.250 235.547 M159.150 239.141 C 159.398 239.189,159.803 239.189,160.050 239.141 C 160.298 239.093,160.095 239.054,159.600 239.054 C 159.105 239.054,158.903 239.093,159.150 239.141 M153.646 242.400 C 153.646 242.785,153.688 242.943,153.738 242.750 C 153.788 242.558,153.788 242.243,153.738 242.050 C 153.688 241.857,153.646 242.015,153.646 242.400 M163.456 250.547 C 163.982 250.589,164.792 250.588,165.256 250.546 C 165.720 250.504,165.290 250.470,164.300 250.471 C 163.310 250.472,162.930 250.506,163.456 250.547 M170.999 253.059 L 171.097 255.100 171.157 253.218 C 171.189 252.183,171.145 251.264,171.058 251.177 C 170.971 251.090,170.944 251.937,170.999 253.059 M162.646 271.400 C 162.646 271.785,162.688 271.943,162.738 271.750 C 162.788 271.558,162.788 271.243,162.738 271.050 C 162.688 270.858,162.646 271.015,162.646 271.400 M162.077 276.600 C 162.077 277.975,162.109 278.538,162.148 277.850 C 162.187 277.163,162.187 276.038,162.148 275.350 C 162.109 274.663,162.077 275.225,162.077 276.600 M170.457 292.900 C 170.459 293.450,170.498 293.651,170.544 293.347 C 170.589 293.043,170.588 292.593,170.541 292.347 C 170.493 292.101,170.456 292.350,170.457 292.900 M172.876 296.700 C 172.877 298.020,172.909 298.534,172.948 297.842 C 172.987 297.150,172.987 296.070,172.948 295.442 C 172.908 294.814,172.876 295.380,172.876 296.700 M241.246 313.200 C 241.246 313.585,241.288 313.743,241.338 313.550 C 241.388 313.358,241.388 313.043,241.338 312.850 C 241.288 312.658,241.246 312.815,241.246 313.200 M239.246 313.400 C 239.246 313.785,239.288 313.943,239.338 313.750 C 239.388 313.558,239.388 313.243,239.338 313.050 C 239.288 312.858,239.246 313.015,239.246 313.400 M242.686 324.600 C 242.686 327.295,242.715 328.398,242.749 327.050 C 242.784 325.703,242.784 323.498,242.749 322.150 C 242.715 320.803,242.686 321.905,242.686 324.600 M240.676 327.400 C 240.676 328.665,240.708 329.183,240.748 328.550 C 240.787 327.918,240.787 326.882,240.748 326.250 C 240.708 325.618,240.676 326.135,240.676 327.400 M234.850 328.138 C 235.043 328.188,235.357 328.188,235.550 328.138 C 235.743 328.088,235.585 328.046,235.200 328.046 C 234.815 328.046,234.657 328.088,234.850 328.138 M242.446 331.000 C 242.446 331.385,242.488 331.543,242.538 331.350 C 242.588 331.158,242.588 330.843,242.538 330.650 C 242.488 330.457,242.446 330.615,242.446 331.000 M240.076 336.100 C 240.077 337.420,240.109 337.934,240.148 337.242 C 240.187 336.550,240.187 335.470,240.148 334.842 C 240.108 334.214,240.076 334.780,240.076 336.100 M242.069 335.500 C 242.069 336.380,242.104 336.715,242.147 336.245 C 242.189 335.774,242.188 335.054,242.145 334.645 C 242.102 334.235,242.068 334.620,242.069 335.500 M243.154 336.945 C 243.513 336.989,244.053 336.989,244.354 336.943 C 244.654 336.897,244.360 336.861,243.700 336.862 C 243.040 336.863,242.794 336.900,243.154 336.945 M239.446 340.200 C 239.446 340.585,239.488 340.743,239.538 340.550 C 239.588 340.358,239.588 340.043,239.538 339.850 C 239.488 339.658,239.446 339.815,239.446 340.200 M239.450 342.300 C 239.453 342.740,239.494 342.896,239.541 342.648 C 239.589 342.399,239.587 342.039,239.537 341.848 C 239.487 341.656,239.448 341.860,239.450 342.300 M239.050 345.500 C 239.053 345.940,239.094 346.096,239.141 345.848 C 239.189 345.599,239.187 345.239,239.137 345.048 C 239.087 344.856,239.048 345.060,239.050 345.500 M241.050 345.700 C 241.053 346.140,241.094 346.296,241.141 346.048 C 241.189 345.799,241.187 345.439,241.137 345.248 C 241.087 345.056,241.048 345.260,241.050 345.700 " stroke="none" fill="#77b3d4" fill-rule="evenodd"></path><path id="path18" d="" stroke="none" fill="#55c6c6" fill-rule="evenodd"></path><path id="path19" d="M186.950 270.946 C 187.418 270.989,188.183 270.989,188.650 270.946 C 189.118 270.904,188.735 270.870,187.800 270.870 C 186.865 270.870,186.483 270.904,186.950 270.946 M195.660 281.400 C 195.660 282.005,195.697 282.252,195.743 281.950 C 195.789 281.647,195.789 281.153,195.743 280.850 C 195.697 280.548,195.660 280.795,195.660 281.400 M188.887 299.050 L 188.300 299.700 188.950 299.113 C 189.308 298.790,189.600 298.497,189.600 298.463 C 189.600 298.308,189.435 298.444,188.887 299.050 M187.487 300.250 L 186.900 300.900 187.550 300.313 C 188.156 299.765,188.292 299.600,188.137 299.600 C 188.103 299.600,187.810 299.893,187.487 300.250 M189.887 300.850 L 189.300 301.500 189.950 300.913 C 190.308 300.590,190.600 300.297,190.600 300.263 C 190.600 300.108,190.435 300.244,189.887 300.850 M214.872 303.400 C 214.872 304.445,214.906 304.873,214.947 304.350 C 214.988 303.828,214.988 302.973,214.947 302.450 C 214.906 301.928,214.872 302.355,214.872 303.400 M206.477 316.600 C 206.477 317.975,206.509 318.538,206.548 317.850 C 206.587 317.163,206.587 316.038,206.548 315.350 C 206.509 314.663,206.477 315.225,206.477 316.600 M180.060 316.600 C 180.060 317.205,180.097 317.453,180.143 317.150 C 180.189 316.848,180.189 316.353,180.143 316.050 C 180.097 315.748,180.060 315.995,180.060 316.600 M222.046 331.000 C 222.046 331.385,222.088 331.543,222.138 331.350 C 222.188 331.158,222.188 330.843,222.138 330.650 C 222.088 330.457,222.046 330.615,222.046 331.000 M159.057 332.500 C 159.059 333.050,159.098 333.251,159.144 332.947 C 159.189 332.643,159.188 332.193,159.141 331.947 C 159.093 331.701,159.056 331.950,159.057 332.500 M224.466 333.300 C 224.467 334.070,224.503 334.360,224.546 333.946 C 224.589 333.531,224.589 332.901,224.544 332.546 C 224.500 332.190,224.465 332.530,224.466 333.300 M175.091 334.850 L 174.300 335.700 175.150 334.909 C 175.940 334.174,176.092 334.000,175.941 334.000 C 175.908 334.000,175.525 334.382,175.091 334.850 M164.250 336.948 C 164.883 336.987,165.918 336.987,166.550 336.948 C 167.183 336.908,166.665 336.876,165.400 336.876 C 164.135 336.876,163.618 336.908,164.250 336.948 M216.674 345.200 C 216.674 346.355,216.707 346.828,216.747 346.250 C 216.788 345.673,216.788 344.728,216.747 344.150 C 216.707 343.572,216.674 344.045,216.674 345.200 " stroke="none" fill="#f99c95" fill-rule="evenodd"></path><path id="path20" d="M142.952 72.541 C 143.201 72.589,143.561 72.587,143.752 72.537 C 143.944 72.487,143.740 72.448,143.300 72.450 C 142.860 72.453,142.704 72.494,142.952 72.541 M213.450 72.738 C 213.643 72.788,213.957 72.788,214.150 72.738 C 214.343 72.688,214.185 72.646,213.800 72.646 C 213.415 72.646,213.257 72.688,213.450 72.738 M157.750 72.948 C 158.438 72.987,159.563 72.987,160.250 72.948 C 160.938 72.909,160.375 72.877,159.000 72.877 C 157.625 72.877,157.063 72.909,157.750 72.948 M238.750 73.141 C 238.998 73.189,239.403 73.189,239.650 73.141 C 239.898 73.093,239.695 73.054,239.200 73.054 C 238.705 73.054,238.503 73.093,238.750 73.141 M140.066 80.100 C 140.067 80.870,140.103 81.160,140.146 80.746 C 140.189 80.331,140.189 79.701,140.144 79.346 C 140.100 78.990,140.065 79.330,140.066 80.100 M145.654 93.800 C 145.654 94.295,145.693 94.498,145.741 94.250 C 145.789 94.002,145.789 93.598,145.741 93.350 C 145.693 93.103,145.654 93.305,145.654 93.800 M214.060 99.400 C 214.060 100.005,214.097 100.252,214.143 99.950 C 214.189 99.648,214.189 99.153,214.143 98.850 C 214.097 98.548,214.060 98.795,214.060 99.400 M214.066 101.900 C 214.067 102.670,214.103 102.960,214.146 102.546 C 214.189 102.131,214.189 101.501,214.144 101.146 C 214.100 100.790,214.065 101.130,214.066 101.900 M226.355 106.347 C 226.826 106.389,227.546 106.388,227.955 106.345 C 228.365 106.302,227.980 106.268,227.100 106.269 C 226.220 106.269,225.885 106.304,226.355 106.347 M145.646 108.200 C 145.646 108.585,145.688 108.743,145.738 108.550 C 145.788 108.358,145.788 108.043,145.738 107.850 C 145.688 107.658,145.646 107.815,145.646 108.200 M214.050 111.700 C 214.053 112.140,214.094 112.296,214.141 112.048 C 214.189 111.799,214.187 111.439,214.137 111.248 C 214.087 111.056,214.048 111.260,214.050 111.700 M145.446 114.800 C 145.446 115.185,145.488 115.343,145.538 115.150 C 145.588 114.958,145.588 114.642,145.538 114.450 C 145.488 114.258,145.446 114.415,145.446 114.800 M154.275 121.100 C 154.275 122.310,154.308 122.779,154.348 122.143 C 154.388 121.506,154.387 120.516,154.347 119.943 C 154.307 119.369,154.274 119.890,154.275 121.100 M145.246 124.400 C 145.246 124.785,145.288 124.942,145.338 124.750 C 145.388 124.558,145.388 124.243,145.338 124.050 C 145.288 123.858,145.246 124.015,145.246 124.400 M167.750 126.945 C 168.108 126.989,168.692 126.989,169.050 126.945 C 169.408 126.900,169.115 126.864,168.400 126.864 C 167.685 126.864,167.393 126.900,167.750 126.945 M188.000 128.700 C 187.514 129.195,187.162 129.600,187.217 129.600 C 187.272 129.600,187.714 129.195,188.200 128.700 C 188.686 128.205,189.038 127.800,188.983 127.800 C 188.928 127.800,188.486 128.205,188.000 128.700 M222.739 134.506 C 222.430 134.778,222.257 135.000,222.354 135.000 C 222.451 135.000,222.742 134.775,223.000 134.500 C 223.598 133.864,223.466 133.867,222.739 134.506 M238.552 134.741 C 238.801 134.789,239.161 134.787,239.352 134.737 C 239.544 134.687,239.340 134.648,238.900 134.650 C 238.460 134.653,238.304 134.694,238.552 134.741 " stroke="none" fill="#accdee" fill-rule="evenodd"></path><path id="path21" d="M145.692 220.650 C 145.639 220.788,145.620 226.705,145.650 233.800 L 145.703 246.700 145.751 233.651 L 145.800 220.603 160.350 220.550 L 174.900 220.497 160.344 220.449 C 148.847 220.410,145.767 220.453,145.692 220.650 M187.566 220.550 C 194.532 220.579,205.872 220.579,212.766 220.550 C 219.659 220.521,213.960 220.497,200.100 220.497 C 186.240 220.497,180.599 220.521,187.566 220.550 M239.949 220.549 L 254.597 220.603 254.651 233.851 L 254.704 247.100 254.702 233.800 L 254.700 220.500 240.000 220.498 L 225.300 220.496 239.949 220.549 M254.650 307.349 L 254.600 367.398 231.550 367.450 L 208.500 367.502 231.556 367.551 C 249.854 367.590,254.632 367.548,254.707 367.350 C 254.760 367.213,254.779 340.145,254.751 307.200 L 254.699 247.300 254.650 307.349 M145.700 307.500 L 145.700 367.500 177.000 367.501 L 208.300 367.502 177.050 367.450 L 145.801 367.399 145.750 307.449 L 145.699 247.500 145.700 307.500 M186.950 273.146 C 187.418 273.189,188.183 273.189,188.650 273.146 C 189.118 273.104,188.735 273.070,187.800 273.070 C 186.865 273.070,186.483 273.104,186.950 273.146 M197.866 281.300 C 197.867 282.070,197.903 282.360,197.946 281.946 C 197.989 281.531,197.989 280.901,197.944 280.546 C 197.900 280.190,197.865 280.530,197.866 281.300 M212.667 303.200 C 212.667 304.025,212.703 304.363,212.746 303.950 C 212.789 303.538,212.789 302.863,212.746 302.450 C 212.703 302.038,212.667 302.375,212.667 303.200 M208.672 316.600 C 208.672 317.645,208.706 318.072,208.747 317.550 C 208.788 317.028,208.788 316.173,208.747 315.650 C 208.706 315.128,208.672 315.555,208.672 316.600 M222.600 327.663 C 222.600 327.697,222.893 327.990,223.250 328.313 L 223.900 328.900 223.313 328.250 C 222.765 327.644,222.600 327.508,222.600 327.663 M224.250 330.700 C 224.253 331.140,224.294 331.296,224.341 331.048 C 224.389 330.799,224.387 330.439,224.337 330.248 C 224.287 330.056,224.248 330.260,224.250 330.700 M161.246 332.000 C 161.246 332.385,161.288 332.543,161.338 332.350 C 161.388 332.158,161.388 331.843,161.338 331.650 C 161.288 331.457,161.246 331.615,161.246 332.000 M222.260 333.200 C 222.260 333.805,222.297 334.053,222.343 333.750 C 222.389 333.447,222.389 332.953,222.343 332.650 C 222.297 332.348,222.260 332.595,222.260 333.200 M159.400 336.863 C 159.400 336.897,159.692 337.190,160.050 337.513 L 160.700 338.100 160.113 337.450 C 159.565 336.844,159.400 336.708,159.400 336.863 M214.476 345.000 C 214.476 346.265,214.508 346.783,214.548 346.150 C 214.587 345.518,214.587 344.483,214.548 343.850 C 214.508 343.218,214.476 343.735,214.476 345.000 " stroke="none" fill="#ecc9c9" fill-rule="evenodd"></path><path id="path22" d="" stroke="none" fill="#00ffff" fill-rule="evenodd"></path><path id="path23" d="M197.552 9.941 C 197.801 9.989,198.161 9.987,198.352 9.937 C 198.544 9.887,198.340 9.848,197.900 9.850 C 197.460 9.853,197.304 9.894,197.552 9.941 M201.752 9.941 C 202.001 9.989,202.361 9.987,202.552 9.937 C 202.744 9.887,202.540 9.848,202.100 9.850 C 201.660 9.853,201.504 9.894,201.752 9.941 M144.250 72.538 C 144.442 72.588,144.758 72.588,144.950 72.538 C 145.143 72.488,144.985 72.446,144.600 72.446 C 144.215 72.446,144.058 72.488,144.250 72.538 M167.250 72.938 C 167.442 72.988,167.758 72.988,167.950 72.938 C 168.143 72.888,167.985 72.846,167.600 72.846 C 167.215 72.846,167.058 72.888,167.250 72.938 M240.755 73.147 C 241.226 73.189,241.946 73.188,242.355 73.145 C 242.765 73.102,242.380 73.068,241.500 73.069 C 240.620 73.069,240.285 73.104,240.755 73.147 M159.146 81.144 C 159.501 81.189,160.131 81.189,160.546 81.146 C 160.960 81.103,160.670 81.067,159.900 81.066 C 159.130 81.065,158.790 81.100,159.146 81.144 M223.470 83.200 C 223.470 84.135,223.504 84.517,223.546 84.050 C 223.589 83.583,223.589 82.817,223.546 82.350 C 223.504 81.883,223.470 82.265,223.470 83.200 M214.067 97.000 C 214.067 97.825,214.103 98.163,214.146 97.750 C 214.189 97.338,214.189 96.663,214.146 96.250 C 214.103 95.838,214.067 96.175,214.067 97.000 M230.450 97.943 C 230.753 97.989,231.248 97.989,231.550 97.943 C 231.853 97.897,231.605 97.860,231.000 97.860 C 230.395 97.860,230.148 97.897,230.450 97.943 M154.482 109.200 C 154.482 111.125,154.512 111.913,154.549 110.950 C 154.586 109.988,154.586 108.413,154.549 107.450 C 154.512 106.488,154.482 107.275,154.482 109.200 M145.650 106.900 C 145.653 107.340,145.694 107.496,145.741 107.248 C 145.789 106.999,145.787 106.639,145.737 106.448 C 145.687 106.256,145.648 106.460,145.650 106.900 M223.474 108.200 C 223.474 109.355,223.507 109.828,223.547 109.250 C 223.588 108.672,223.588 107.728,223.547 107.150 C 223.507 106.572,223.474 107.045,223.474 108.200 M145.446 113.600 C 145.446 113.985,145.488 114.142,145.538 113.950 C 145.588 113.758,145.588 113.442,145.538 113.250 C 145.488 113.058,145.446 113.215,145.446 113.600 M223.246 117.400 C 223.246 117.785,223.288 117.942,223.338 117.750 C 223.388 117.558,223.388 117.243,223.338 117.050 C 223.288 116.858,223.246 117.015,223.246 117.400 M145.250 125.700 C 145.253 126.140,145.294 126.296,145.341 126.048 C 145.389 125.799,145.387 125.439,145.337 125.248 C 145.287 125.056,145.248 125.260,145.250 125.700 M229.250 126.743 C 229.553 126.789,230.048 126.789,230.350 126.743 C 230.653 126.697,230.405 126.660,229.800 126.660 C 229.195 126.660,228.947 126.697,229.250 126.743 M149.850 134.738 C 150.042 134.788,150.358 134.788,150.550 134.738 C 150.743 134.688,150.585 134.646,150.200 134.646 C 149.815 134.646,149.657 134.688,149.850 134.738 M161.450 134.738 C 161.643 134.788,161.958 134.788,162.150 134.738 C 162.343 134.688,162.185 134.646,161.800 134.646 C 161.415 134.646,161.258 134.688,161.450 134.738 M239.850 134.738 C 240.043 134.788,240.357 134.788,240.550 134.738 C 240.743 134.688,240.585 134.646,240.200 134.646 C 239.815 134.646,239.657 134.688,239.850 134.738 M171.150 134.941 C 171.398 134.989,171.803 134.989,172.050 134.941 C 172.298 134.893,172.095 134.854,171.600 134.854 C 171.105 134.854,170.903 134.893,171.150 134.941 M118.857 152.700 C 118.859 153.250,118.898 153.451,118.944 153.147 C 118.989 152.843,118.988 152.393,118.941 152.147 C 118.893 151.901,118.856 152.150,118.857 152.700 M281.054 152.800 C 281.054 153.295,281.093 153.498,281.141 153.250 C 281.189 153.003,281.189 152.597,281.141 152.350 C 281.093 152.103,281.054 152.305,281.054 152.800 M184.758 233.348 C 185.450 233.387,186.530 233.387,187.158 233.348 C 187.786 233.308,187.220 233.276,185.900 233.276 C 184.580 233.277,184.066 233.309,184.758 233.348 M181.189 235.150 L 180.500 235.900 181.250 235.211 C 181.948 234.569,182.092 234.400,181.939 234.400 C 181.906 234.400,181.568 234.738,181.189 235.150 M157.800 249.863 C 157.800 249.897,158.093 250.190,158.450 250.513 L 159.100 251.100 158.513 250.450 C 157.965 249.844,157.800 249.708,157.800 249.863 M173.276 253.100 C 173.277 254.420,173.309 254.934,173.348 254.242 C 173.387 253.550,173.387 252.470,173.348 251.842 C 173.308 251.214,173.276 251.780,173.276 253.100 M163.150 252.747 C 163.728 252.788,164.673 252.788,165.250 252.747 C 165.828 252.707,165.355 252.674,164.200 252.674 C 163.045 252.674,162.572 252.707,163.150 252.747 M164.850 271.700 C 164.853 272.140,164.894 272.296,164.941 272.048 C 164.989 271.799,164.987 271.439,164.937 271.248 C 164.887 271.056,164.848 271.260,164.850 271.700 M164.277 276.600 C 164.277 277.975,164.309 278.538,164.348 277.850 C 164.387 277.163,164.387 276.038,164.348 275.350 C 164.309 274.663,164.277 275.225,164.277 276.600 M172.657 292.500 C 172.659 293.050,172.698 293.251,172.744 292.947 C 172.789 292.643,172.788 292.193,172.741 291.947 C 172.693 291.701,172.656 291.950,172.657 292.500 M170.674 296.600 C 170.674 297.755,170.707 298.228,170.747 297.650 C 170.788 297.072,170.788 296.127,170.747 295.550 C 170.707 294.973,170.674 295.445,170.674 296.600 " stroke="none" fill="#cfe2f5" fill-rule="evenodd"></path><path id="path24" d="M214.111 226.909 C 213.347 227.181,212.571 227.515,212.386 227.652 C 209.111 230.078,208.116 231.160,207.714 232.729 C 207.290 234.389,207.276 238.760,207.694 239.312 C 207.855 239.525,207.990 239.850,207.994 240.034 C 208.000 240.378,210.145 243.200,210.401 243.200 C 210.480 243.200,210.894 243.438,211.322 243.728 C 211.750 244.018,212.595 244.426,213.200 244.633 C 213.805 244.841,215.023 245.368,215.907 245.805 C 216.792 246.242,217.595 246.600,217.692 246.600 C 217.936 246.600,220.454 247.608,220.700 247.805 C 220.810 247.892,221.254 248.030,221.688 248.111 C 222.121 248.192,223.336 248.614,224.388 249.048 C 225.439 249.482,226.570 249.943,226.900 250.071 C 228.361 250.641,229.510 251.768,229.906 253.021 C 229.989 253.284,230.259 253.770,230.505 254.100 C 230.751 254.430,231.044 255.015,231.157 255.400 C 231.271 255.785,231.529 256.640,231.731 257.299 C 232.325 259.237,232.282 268.601,231.674 269.600 C 231.440 269.985,231.136 270.652,230.998 271.081 C 230.489 272.674,228.286 275.289,226.014 277.000 C 225.648 277.275,224.699 278.061,223.904 278.747 C 223.109 279.433,221.703 280.410,220.779 280.917 C 218.156 282.358,217.335 283.266,217.890 284.113 C 218.293 284.727,218.885 284.733,219.602 284.129 C 219.910 283.870,220.823 283.317,221.631 282.900 C 223.134 282.125,225.289 280.583,225.767 279.942 C 225.914 279.745,226.396 279.355,226.839 279.076 C 229.249 277.554,232.206 274.048,233.136 271.608 C 233.410 270.889,233.784 269.940,233.967 269.500 C 234.989 267.045,234.178 255.884,232.822 253.744 C 232.597 253.390,232.055 252.414,231.617 251.575 C 230.842 250.091,228.878 248.200,228.112 248.200 C 227.976 248.200,227.332 247.938,226.682 247.618 C 226.032 247.298,224.735 246.793,223.800 246.496 C 221.705 245.830,220.734 245.476,219.700 244.999 C 219.260 244.796,218.675 244.571,218.400 244.499 C 218.125 244.426,217.315 244.072,216.600 243.711 C 215.885 243.350,214.805 242.888,214.200 242.685 C 210.845 241.558,209.600 239.768,209.600 236.075 C 209.600 233.025,210.171 231.958,212.902 229.900 C 214.539 228.667,220.455 228.017,222.000 228.900 C 222.275 229.057,222.703 229.189,222.950 229.193 C 223.197 229.197,223.400 229.295,223.400 229.410 C 223.400 229.745,224.751 230.220,225.306 230.081 C 226.405 229.805,226.607 228.563,225.622 228.144 C 225.335 228.022,224.965 227.812,224.800 227.677 C 223.142 226.322,217.003 225.880,214.111 226.909 M237.422 296.404 C 237.159 296.516,236.664 296.733,236.322 296.885 C 235.980 297.037,235.345 297.213,234.912 297.275 C 232.620 297.602,232.181 302.170,234.218 304.490 C 235.937 306.447,239.832 306.799,240.979 305.101 C 241.304 304.619,241.764 303.962,242.001 303.642 C 242.996 302.296,242.925 299.043,241.871 297.650 C 241.016 296.519,238.685 295.867,237.422 296.404 " stroke="none" fill="#ffeb3b" fill-rule="evenodd"></path></g></svg>