<svg width="512" height="400" viewBox="0 0 512 400" fill="none" xmlns="http://www.w3.org/2000/svg">
<path d="M252.879 358.094C251.146 358.094 249.528 357.632 248.025 356.823L232.654 347.693C230.342 346.421 231.498 345.959 232.191 345.728C235.312 344.688 235.89 344.456 239.126 342.607C239.473 342.376 239.935 342.492 240.282 342.723L252.07 349.773C252.533 350.004 253.111 350.004 253.457 349.773L299.572 323.075C300.034 322.844 300.265 322.381 300.265 321.804V268.523C300.265 267.945 300.034 267.483 299.572 267.252L253.457 240.67C252.995 240.438 252.417 240.438 252.07 240.67L205.956 267.252C205.493 267.483 205.262 268.061 205.262 268.523V321.804C205.262 322.266 205.493 322.844 205.956 323.075L218.553 330.356C225.372 333.823 229.649 329.778 229.649 325.733V273.146C229.649 272.453 230.227 271.759 231.036 271.759H236.93C237.623 271.759 238.317 272.337 238.317 273.146V325.733C238.317 334.864 233.347 340.18 224.679 340.18C222.021 340.18 219.94 340.18 214.046 337.291L201.911 330.356C198.906 328.623 197.056 325.386 197.056 321.919V268.639C197.056 265.172 198.906 261.935 201.911 260.202L248.025 233.504C250.915 231.886 254.844 231.886 257.734 233.504L303.848 260.202C306.853 261.935 308.702 265.172 308.702 268.639V321.919C308.702 325.386 306.853 328.623 303.848 330.356L257.734 357.054C256.231 357.748 254.497 358.094 252.879 358.094ZM267.095 321.457C246.869 321.457 242.709 312.211 242.709 304.352C242.709 303.658 243.287 302.965 244.096 302.965H250.106C250.799 302.965 251.377 303.427 251.377 304.121C252.302 310.246 254.96 313.251 267.211 313.251C276.919 313.251 281.08 311.055 281.08 305.854C281.08 302.849 279.924 300.653 264.784 299.151C252.186 297.879 244.327 295.106 244.327 285.051C244.327 275.689 252.186 270.141 265.362 270.141C280.155 270.141 287.437 275.227 288.361 286.322C288.361 286.669 288.246 287.015 288.014 287.362C287.783 287.593 287.437 287.824 287.09 287.824H281.08C280.502 287.824 279.924 287.362 279.809 286.784C278.422 280.428 274.839 278.347 265.362 278.347C254.729 278.347 253.457 282.046 253.457 284.819C253.457 288.171 254.96 289.211 269.291 291.06C283.507 292.91 290.21 295.568 290.21 305.507C290.095 315.678 281.773 321.457 267.095 321.457Z" fill="#539E43"/>
<path d="M109.797 149.712C109.797 147.631 108.641 145.666 106.792 144.626L57.7878 116.426C56.9788 115.963 56.0542 115.732 55.1296 115.617H54.6673C53.7427 115.617 52.8181 115.963 52.009 116.426L3.00497 144.626C1.15576 145.666 0 147.631 0 149.712L0.115576 225.529C0.115576 226.569 0.693454 227.609 1.61806 228.072C2.54266 228.65 3.69842 228.65 4.50745 228.072L33.6325 211.429C35.4817 210.389 36.6375 208.424 36.6375 206.344V170.862C36.6375 168.781 37.7932 166.817 39.6424 165.777L52.009 158.611C52.9336 158.033 53.9738 157.802 55.014 157.802C56.0542 157.802 57.0944 158.033 57.9034 158.611L70.27 165.777C72.1192 166.817 73.2749 168.781 73.2749 170.862V206.344C73.2749 208.424 74.4307 210.389 76.2799 211.429L105.405 228.072C106.33 228.65 107.485 228.65 108.41 228.072C109.335 227.609 109.912 226.569 109.912 225.529L109.797 149.712Z" fill="#333333"/>
<path d="M345.34 45.3467C344.415 44.8844 343.26 44.8844 342.451 45.3467C341.526 45.9246 340.948 46.8492 340.948 47.8894V123.014C340.948 123.707 340.601 124.4 339.908 124.863C339.214 125.209 338.521 125.209 337.828 124.863L325.577 117.813C323.727 116.772 321.531 116.772 319.682 117.813L270.678 146.129C268.829 147.169 267.673 149.134 267.673 151.214V207.73C267.673 209.811 268.829 211.776 270.678 212.816L319.682 241.132C321.531 242.172 323.727 242.172 325.577 241.132L374.581 212.816C376.43 211.776 377.586 209.811 377.586 207.73V66.8438C377.586 64.6479 376.43 62.6831 374.581 61.6429L345.34 45.3467ZM340.833 189.123C340.833 189.701 340.601 190.163 340.139 190.394L323.381 200.102C322.918 200.334 322.34 200.334 321.878 200.102L305.12 190.394C304.657 190.163 304.426 189.585 304.426 189.123V169.706C304.426 169.128 304.657 168.666 305.12 168.435L321.878 158.726C322.34 158.495 322.918 158.495 323.381 158.726L340.139 168.435C340.601 168.666 340.833 169.244 340.833 169.706V189.123Z" fill="#333333"/>
<path d="M508.417 169.244C510.266 168.204 511.307 166.239 511.307 164.158V150.405C511.307 148.325 510.151 146.36 508.417 145.32L459.76 117.119C457.911 116.079 455.715 116.079 453.865 117.119L404.861 145.435C403.012 146.475 401.856 148.44 401.856 150.521V207.037C401.856 209.117 403.012 211.082 404.861 212.122L453.519 239.86C455.368 240.901 457.564 240.901 459.298 239.86L488.769 223.449C489.694 222.986 490.272 221.946 490.272 220.906C490.272 219.866 489.694 218.826 488.769 218.363L439.534 190.047C438.609 189.47 438.032 188.545 438.032 187.505V169.822C438.032 168.781 438.609 167.741 439.534 167.279L454.906 158.495C455.83 157.917 456.986 157.917 457.911 158.495L473.282 167.279C474.207 167.857 474.785 168.781 474.785 169.822V183.691C474.785 184.731 475.363 185.771 476.287 186.233C477.212 186.811 478.368 186.811 479.292 186.233L508.417 169.244Z" fill="#333333"/>
<path d="M456.061 166.586C456.408 166.354 456.87 166.354 457.217 166.586L466.579 172.018C466.925 172.249 467.157 172.595 467.157 173.058V183.922C467.157 184.384 466.925 184.731 466.579 184.962L457.217 190.394C456.87 190.625 456.408 190.625 456.061 190.394L446.7 184.962C446.353 184.731 446.122 184.384 446.122 183.922V173.058C446.122 172.595 446.353 172.249 446.7 172.018L456.061 166.586Z" fill="#539E43"/>
<mask id="mask0" mask-type="alpha" maskUnits="userSpaceOnUse" x="134" y="116" width="110" height="125">
<path d="M191.74 117.35C189.891 116.31 187.695 116.31 185.846 117.35L137.188 145.435C135.339 146.475 134.299 148.44 134.299 150.521V206.806C134.299 208.886 135.455 210.851 137.188 211.891L185.846 239.976C187.695 241.016 189.891 241.016 191.74 239.976L240.397 211.891C242.246 210.851 243.287 208.886 243.287 206.806V150.521C243.287 148.44 242.131 146.475 240.397 145.435L191.74 117.35Z" fill="white"/>
</mask>
<g mask="url(#mask0)">
<path d="M191.74 117.35C189.891 116.31 187.695 116.31 185.846 117.35L137.188 145.435C135.339 146.475 134.299 148.44 134.299 150.521V206.806C134.299 208.886 135.455 210.851 137.188 211.891L185.846 239.976C187.695 241.016 189.891 241.016 191.74 239.976L240.397 211.891C242.246 210.851 243.287 208.886 243.287 206.806V150.521C243.287 148.44 242.131 146.475 240.397 145.435L191.74 117.35Z" fill="url(#paint0_linear)"/>
<path d="M240.513 145.435L191.624 117.35C191.162 117.119 190.584 116.888 190.122 116.772L135.339 210.62C135.801 211.198 136.379 211.66 136.957 212.007L185.846 240.092C187.233 240.901 188.851 241.132 190.353 240.67L241.784 146.591C241.437 146.129 240.975 145.782 240.513 145.435Z" fill="url(#paint1_linear)"/>
<path fill-rule="evenodd" clip-rule="evenodd" d="M240.628 211.891C242.015 211.082 243.056 209.695 243.518 208.193L189.891 116.657C188.504 116.426 187.001 116.541 185.73 117.35L137.188 145.32L189.544 240.785C190.237 240.67 191.046 240.438 191.74 240.092L240.628 211.891Z" fill="url(#paint2_linear)"/>
<path fill-rule="evenodd" clip-rule="evenodd" d="M240.628 211.891L191.855 239.976C191.162 240.323 190.469 240.554 189.66 240.669L190.584 242.403L244.674 211.082V210.389L243.287 208.077C243.055 209.695 242.015 211.082 240.628 211.891Z" fill="url(#paint3_linear)"/>
<path fill-rule="evenodd" clip-rule="evenodd" d="M240.628 211.891L191.855 239.976C191.162 240.323 190.469 240.554 189.66 240.669L190.584 242.403L244.674 211.082V210.389L243.287 208.077C243.055 209.695 242.015 211.082 240.628 211.891Z" fill="url(#paint4_linear)"/>
</g>
<defs>
<linearGradient id="paint0_linear" x1="208.616" y1="138.286" x2="155.281" y2="222.088" gradientUnits="userSpaceOnUse">
<stop stop-color="#41873F"/>
<stop offset="0.3288" stop-color="#418B3D"/>
<stop offset="0.6352" stop-color="#419637"/>
<stop offset="0.9319" stop-color="#3FA92D"/>
<stop offset="1" stop-color="#3FAE2A"/>
</linearGradient>
<linearGradient id="paint1_linear" x1="181.405" y1="185.255" x2="314.974" y2="112.687" gradientUnits="userSpaceOnUse">
<stop offset="0.1376" stop-color="#41873F"/>
<stop offset="0.4032" stop-color="#54A044"/>
<stop offset="0.7136" stop-color="#66B848"/>
<stop offset="0.9081" stop-color="#6CC04A"/>
</linearGradient>
<linearGradient id="paint2_linear" x1="132.522" y1="178.665" x2="245.112" y2="178.665" gradientUnits="userSpaceOnUse">
<stop offset="0.0919165" stop-color="#6CC04A"/>
<stop offset="0.2864" stop-color="#66B848"/>
<stop offset="0.5968" stop-color="#54A044"/>
<stop offset="0.8624" stop-color="#41873F"/>
</linearGradient>
<linearGradient id="paint3_linear" x1="132.522" y1="225.335" x2="245.112" y2="225.335" gradientUnits="userSpaceOnUse">
<stop offset="0.0919165" stop-color="#6CC04A"/>
<stop offset="0.2864" stop-color="#66B848"/>
<stop offset="0.5968" stop-color="#54A044"/>
<stop offset="0.8624" stop-color="#41873F"/>
</linearGradient>
<linearGradient id="paint4_linear" x1="261.515" y1="135.626" x2="232.992" y2="285.088" gradientUnits="userSpaceOnUse">
<stop stop-color="#41873F"/>
<stop offset="0.3288" stop-color="#418B3D"/>
<stop offset="0.6352" stop-color="#419637"/>
<stop offset="0.9319" stop-color="#3FA92D"/>
<stop offset="1" stop-color="#3FAE2A"/>
</linearGradient>
</defs>
</svg>
