<svg width="364" height="412" xmlns="http://www.w3.org/2000/svg">
 <metadata id="metadata3481">image/svg+xml</metadata>

 <g>
  <title>background</title>
  <rect x="-1" y="-1" width="366" height="414" id="canvas_background" fill="none"/>
 </g>
 <g>
  <title>Layer 1</title>
  <g id="layer1">
   <g id="g3013">
    <polygon id="polygon2989" points="363.7340087890625,0 330.6880187988281,370.19898986816406 182.14500427246094,411.37998962402344 34.01100158691406,370.2570037841797 1.0000076293945312,0 " fill="#264de4"/>
    <polygon id="polygon2991" points="302.3970031738281,346.62599182128906 330.6369934082031,30.27398681640625 182.36700439453125,30.27398681640625 182.36700439453125,379.9029998779297 " fill="#2965f1"/>
    <polygon id="polygon2993" points="76.677001953125,167.5970001220703 80.74700927734375,213.0070037841797 182.36700439453125,213.0070037841797 182.36700439453125,167.5970001220703 " fill="#ebebeb"/>
    <polygon id="polygon2995" points="182.36700439453125,75.68498229980469 182.2100067138672,75.68498229980469 68.49900817871094,75.68498229980469 72.62699890136719,121.09599304199219 182.36700439453125,121.09599304199219 " fill="#ebebeb"/>
    <polygon id="polygon2997" points="182.36700439453125,332.7789764404297 182.36700439453125,285.5330047607422 182.16799926757812,285.5859832763672 131.59400939941406,271.9299774169922 128.3610076904297,235.71299743652344 103.7860107421875,235.71299743652344 82.7760009765625,235.71299743652344 89.13800048828125,307.0139923095703 182.1580047607422,332.8369903564453 " fill="#ebebeb"/>
    <polygon id="polygon3005" points="238.12799072265625,213.0070037841797 232.85699462890625,271.90098571777344 182.2100067138672,285.5709991455078 182.2100067138672,332.8149871826172 275.30401611328125,307.0139923095703 275.98699951171875,299.3419952392578 286.6579895019531,179.79100036621094 287.7659912109375,167.5970001220703 295.9639892578125,75.68498229980469 182.2100067138672,75.68498229980469 182.2100067138672,121.09599304199219 246.197998046875,121.09599304199219 242.06600952148438,167.5970001220703 182.2100067138672,167.5970001220703 182.2100067138672,213.0070037841797 " fill="#ffffff"/>
   </g>
  </g>
 </g>
</svg>