<svg width="235" height="254" viewBox="0 0 235 254" fill="none" xmlns="http://www.w3.org/2000/svg">
<path d="M117.5 250.735C181.013 250.735 232.5 199.248 232.5 135.735C232.5 72.2224 181.013 20.7351 117.5 20.7351C53.9872 20.7351 2.5 72.2224 2.5 135.735C2.5 199.248 53.9872 250.735 117.5 250.735Z" fill="url(#paint0_linear)" stroke="white" stroke-width="5"/>
<mask id="mask0" mask-type="alpha" maskUnits="userSpaceOnUse" x="5" y="0" width="225" height="249">
<path d="M230 135.735C230 197.867 179.632 248.235 117.5 248.235C55.368 248.235 5 197.867 5 135.735C5 73.6031 65.3518 8.35238 115.625 0.735201C177.5 -8.63983 230 73.6031 230 135.735Z" fill="#C4C4C4"/>
</mask>
<g mask="url(#mask0)">
<path d="M140 155.058V172.298H143.75C181.029 172.298 211.25 202.519 211.25 239.798V248.235H23.7499V239.798C23.7499 202.519 53.9707 172.298 91.2499 172.298H94.9999V155.058C78.8399 147.381 67.2239 131.692 65.286 113.124C59.8252 112.352 55.6249 107.659 55.6249 101.985V88.8605C55.6249 83.2861 59.6792 78.6586 64.9999 77.766V71.9855C64.9999 42.9905 88.505 19.4854 117.5 19.4854C146.495 19.4854 170 42.9905 170 71.9855V77.766C175.321 78.6586 179.375 83.2861 179.375 88.8605V101.985C179.375 107.659 175.175 112.352 169.714 113.124C167.776 131.692 156.16 147.381 140 155.058Z" fill="url(#paint1_linear)"/>
<path fill-rule="evenodd" clip-rule="evenodd" d="M170 93.5476V115.11C170 144.105 146.495 167.61 117.5 167.61C88.5051 167.61 65.0001 144.105 65.0001 115.11V93.5476V107.61C65.0001 136.605 88.5051 160.11 117.5 160.11C146.495 160.11 170 136.605 170 107.61V93.5476Z" fill="black" fill-opacity="0.1"/>
<mask id="mask1" mask-type="alpha" maskUnits="userSpaceOnUse" x="23" y="157" width="189" height="92">
<path fill-rule="evenodd" clip-rule="evenodd" d="M94.9999 157.364C78.2012 159.244 65.2623 164.378 65.0039 177.59C40.7622 187.83 23.7499 211.827 23.7499 239.797V248.235H211.25V239.797C211.25 211.827 194.238 187.83 169.996 177.59C169.738 164.378 156.799 159.244 140 157.364V175.11C140 187.537 129.926 197.61 117.5 197.61C105.074 197.61 94.9999 187.537 94.9999 175.11V157.364Z" fill="white"/>
</mask>
<g mask="url(#mask1)">
<path fill-rule="evenodd" clip-rule="evenodd" d="M94.9999 157.364C78.2012 159.244 65.2623 164.378 65.0039 177.59C40.7622 187.83 23.7499 211.827 23.7499 239.797V248.235H211.25V239.797C211.25 211.827 194.238 187.83 169.996 177.59C169.738 164.378 156.799 159.244 140 157.364V175.11C140 187.537 129.926 197.61 117.5 197.61C105.074 197.61 94.9999 187.537 94.9999 175.11V157.364Z" fill="#1F3140"/>
<path fill-rule="evenodd" clip-rule="evenodd" d="M89.3749 202.991V248.235H82.8124V199.626C84.8785 200.854 87.075 201.98 89.3749 202.991ZM152.187 199.626V237.454C152.187 239.266 150.718 240.735 148.906 240.735C147.094 240.735 145.625 239.266 145.625 237.454V202.991C147.925 201.98 150.121 200.854 152.187 199.626Z" fill="#F4F4F4"/>
<path fill-rule="evenodd" clip-rule="evenodd" d="M79.0252 157.039C64.915 159.708 55.1563 165.025 55.1563 175.399C55.1563 193.879 86.1291 208.86 117.5 208.86C148.871 208.86 179.844 193.879 179.844 175.399C179.844 165.025 170.085 159.708 155.975 157.039C164.492 160.18 170 165.46 170 174.245C170 193.362 143.918 208.86 117.5 208.86C91.0824 208.86 65.0001 193.362 65.0001 174.245C65.0001 165.46 70.508 160.18 79.0252 157.039Z" fill="black" fill-opacity="0.16"/>
</g>
<path fill-rule="evenodd" clip-rule="evenodd" d="M104.375 125.423C104.375 132.671 110.251 138.548 117.5 138.548C124.749 138.548 130.625 132.671 130.625 125.423" fill="black" fill-opacity="0.7"/>
<path fill-rule="evenodd" clip-rule="evenodd" d="M106.25 107.61C106.25 111.752 111.287 115.11 117.5 115.11C123.713 115.11 128.75 111.752 128.75 107.61" fill="black" fill-opacity="0.16"/>
<path d="M93.1251 96.3601C96.2317 96.3601 98.7501 93.8417 98.7501 90.7351C98.7501 87.6285 96.2317 85.1101 93.1251 85.1101C90.0185 85.1101 87.5001 87.6285 87.5001 90.7351C87.5001 93.8417 90.0185 96.3601 93.1251 96.3601Z" fill="black" fill-opacity="0.6"/>
<path fill-rule="evenodd" clip-rule="evenodd" d="M131.196 93.5056C132.675 89.8321 136.39 87.0833 140.91 86.7672C145.414 86.4523 149.463 88.6407 151.446 92.0518C152.035 93.0652 151.361 93.9753 150.577 93.3907C148.146 91.5802 144.805 90.5771 141.194 90.8296C137.696 91.0742 134.613 92.4505 132.465 94.4736C131.679 95.2133 130.764 94.58 131.196 93.5056Z" fill="black" fill-opacity="0.6"/>
<path d="M79.6169 75.8871C83.8319 69.9561 92.7529 66.9729 101.888 69.9188C102.874 70.2366 103.93 69.6953 104.248 68.7097C104.566 67.7242 104.025 66.6676 103.039 66.3498C92.3435 62.9008 81.721 66.453 76.5602 73.7148C75.9603 74.5589 76.1583 75.7294 77.0024 76.3293C77.8464 76.9292 79.017 76.7312 79.6169 75.8871Z" fill="black" fill-opacity="0.6"/>
<path d="M155.354 82.4458C151.684 77.2814 141.622 74.3854 132.954 76.5139C131.949 76.7608 130.933 76.1458 130.686 75.1401C130.439 74.1345 131.054 73.119 132.06 72.8721C142.126 70.4002 153.777 73.7537 158.411 80.2735C159.01 81.1176 158.812 82.2881 157.968 82.888C157.124 83.4879 155.954 83.2899 155.354 82.4458Z" fill="black" fill-opacity="0.6"/>
<path fill-rule="evenodd" clip-rule="evenodd" d="M133.839 149.019C131.483 151.169 128.972 152.136 125.8 151.46C125.254 151.344 123.028 147.205 117.5 147.205C111.972 147.205 109.746 151.344 109.2 151.46C106.027 152.136 103.517 151.169 101.161 149.019C96.7308 144.975 93.0468 139.399 95.2604 133.316C96.4141 130.145 98.2904 126.664 101.704 125.654C105.348 124.575 110.466 125.652 114.139 124.915C115.329 124.676 116.629 124.252 117.5 123.548C118.371 124.252 119.671 124.676 120.861 124.915C124.534 125.652 129.651 124.575 133.296 125.654C136.709 126.664 138.586 130.145 139.74 133.316C141.953 139.399 138.269 144.975 133.839 149.019ZM170.076 81.3605C166.879 89.2357 168.114 99.0399 167.522 107.307C167.041 114.026 165.629 124.097 159.662 128.437C156.611 130.656 151.057 134.385 147.07 133.345C144.326 132.629 144.033 124.757 140.427 121.811C136.336 118.469 131.228 117.001 126.077 117.227C123.855 117.325 119.36 117.302 117.5 119.011C115.64 117.302 111.145 117.325 108.923 117.227C103.772 117.001 98.6639 118.469 94.573 121.811C90.9666 124.757 90.674 132.629 87.9297 133.345C83.9429 134.385 78.3892 130.656 75.3378 128.437C69.371 124.097 67.9589 114.026 67.4777 107.307C66.8863 99.0399 68.1211 89.2357 64.9239 81.3605C63.3685 81.3605 64.3944 96.4813 64.3944 96.4813V115.565C64.424 129.898 73.3766 151.35 93.2262 159.541C98.0807 161.545 109.077 164.798 117.5 164.798C125.923 164.798 136.919 161.854 141.774 159.851C161.623 151.66 170.576 129.898 170.606 115.565V96.4813C170.606 96.4813 171.631 81.3605 170.076 81.3605Z" fill="#1C0F06"/>
<path fill-rule="evenodd" clip-rule="evenodd" d="M161.703 23.1608C159.116 20.517 156.112 18.273 153.19 16.0228C152.545 15.5267 151.89 15.0426 151.26 14.5277C151.117 14.4107 149.649 13.3595 149.473 12.9726C149.05 12.0419 149.295 12.7666 149.354 11.6559C149.427 10.2515 152.291 6.28474 150.154 5.37508C149.214 4.97497 147.537 6.03971 146.635 6.39138C144.872 7.0796 143.086 7.66654 141.263 8.17265C142.136 6.43195 143.802 2.94741 140.671 3.88004C138.232 4.60664 135.959 6.47473 133.509 7.35357C134.319 6.0243 137.562 1.90532 134.632 1.67507C133.72 1.60336 131.067 3.31386 130.085 3.67873C127.144 4.77178 124.141 5.47825 121.053 6.03468C110.555 7.92667 98.2787 7.38723 88.5658 12.1668C81.0777 15.8513 73.6837 21.5685 69.3579 28.8487C65.1887 35.8659 63.6293 43.5455 62.7566 51.5866C62.1163 57.4878 62.0642 63.5878 62.3637 69.5104C62.4615 71.4508 62.6798 80.3955 65.4988 77.6867C66.9033 76.3369 66.8929 70.8868 67.2466 69.042C67.9506 65.3716 68.6282 61.6848 69.8019 58.1317C71.8703 51.8703 74.3102 45.2007 79.4628 40.8883C82.7694 38.1212 85.0914 34.3812 88.2557 31.5896C89.6771 30.3359 88.5925 30.4664 90.8778 30.6309C92.413 30.7413 93.9552 30.7835 95.4936 30.8237C99.0523 30.9162 102.617 30.8926 106.176 30.9052C113.345 30.931 120.481 31.0323 127.643 30.657C130.825 30.4903 134.017 30.4 137.191 30.1056C138.964 29.9411 142.111 28.8047 143.571 29.6731C144.906 30.4677 146.294 33.062 147.253 34.1246C149.519 36.6356 152.221 38.5534 154.871 40.6124C160.397 44.9056 163.187 50.2979 164.865 57.0072C166.537 63.6916 166.068 69.893 168.138 76.4711C168.502 77.6277 169.465 79.6213 170.652 77.8344C170.872 77.5025 170.815 75.6782 170.815 74.6285C170.815 70.3912 171.888 67.212 171.875 62.947C171.822 49.9796 171.403 33.0705 161.703 23.1608Z" fill="#1C0F06"/>
</g>
<defs>
<linearGradient id="paint0_linear" x1="-21.5" y1="-9.99999" x2="230" y2="328.5" gradientUnits="userSpaceOnUse">
<stop stop-color="#73E97F"/>
<stop offset="1" stop-color="#36B343"/>
</linearGradient>
<linearGradient id="paint1_linear" x1="-22" y1="32" x2="211" y2="182.5" gradientUnits="userSpaceOnUse">
<stop stop-color="#B87445"/>
<stop offset="1" stop-color="#9D5929"/>
</linearGradient>
</defs>
</svg>
